<?xml version="1.0" encoding="UTF-8" standalone="no"?>
<!-- Created with Inkscape (http://www.inkscape.org/) -->

<svg
   xmlns:dc="http://purl.org/dc/elements/1.1/"
   xmlns:cc="http://creativecommons.org/ns#"
   xmlns:rdf="http://www.w3.org/1999/02/22-rdf-syntax-ns#"
   xmlns:svg="http://www.w3.org/2000/svg"
   xmlns="http://www.w3.org/2000/svg"
   xmlns:sodipodi="http://sodipodi.sourceforge.net/DTD/sodipodi-0.dtd"
   xmlns:inkscape="http://www.inkscape.org/namespaces/inkscape"
   id="svg2"
   version="1.1"
   inkscape:version="0.48.5 r10040"
   width="712.5"
   height="130"
   xml:space="preserve"
   sodipodi:docname="Logo_Golfschule_Schmuck.svg"><metadata
     id="metadata8"><rdf:RDF><cc:Work
         rdf:about=""><dc:format>image/svg+xml</dc:format><dc:type
           rdf:resource="http://purl.org/dc/dcmitype/StillImage" /><dc:title /></cc:Work></rdf:RDF></metadata><defs
     id="defs6" /><sodipodi:namedview
     pagecolor="#ffffff"
     bordercolor="#666666"
     borderopacity="1"
     objecttolerance="10"
     gridtolerance="10"
     guidetolerance="10"
     inkscape:pageopacity="0"
     inkscape:pageshadow="2"
     inkscape:window-width="1600"
     inkscape:window-height="843"
     id="namedview4"
     showgrid="false"
     inkscape:zoom="4.0927852"
     inkscape:cx="608.22323"
     inkscape:cy="42.108339"
     inkscape:window-x="0"
     inkscape:window-y="27"
     inkscape:window-maximized="1"
     inkscape:current-layer="g12"
     inkscape:snap-global="false" /><g
     id="g10"
     inkscape:groupmode="layer"
     inkscape:label="ink_ext_XXXXXX"
     transform="matrix(1.25,0,0,-1.25,0,130)"><g
       id="g12"
       transform="matrix(0.1,0,0,0.1,0.51538863,-0.51538863)"><path
         d="m 874.242,649.16 c 421.308,243.238 752.588,376.21 1223.848,266.735 l -306.06,82.011 C 1320.77,1107.38 989.488,974.41 568.184,731.172 L 874.242,649.16"
         style="fill:#99d420;fill-opacity:1;fill-rule:nonzero;stroke:none"
         id="path14"
         inkscape:connector-curvature="0" /><path
         d="M 1228.41,650.664 C 807.105,407.422 475.824,274.453 4.56641,383.926 L 310.625,301.918 C 781.883,192.445 1113.16,325.414 1534.47,568.652 l -306.06,82.012"
         style="fill:#99d420;fill-opacity:1;fill-rule:nonzero;stroke:none"
         id="path16"
         inkscape:connector-curvature="0" /><path
         d="m 1745.77,788.359 c -24.18,0 -44.27,-7.152 -60.96,-22.14 -24.17,-21.785 -36.1,-53.453 -36.1,-98.059 0,-40.183 9.2,-69.129 28.95,-90.578 17.71,-19.07 42.57,-29.285 71.85,-29.285 23.83,0 49.04,6.812 65.72,17.711 l 0,108.957 -78.66,0 5.45,-23.152 46.99,0 0,-71.165 c -9.88,-6.132 -22.48,-9.195 -37.12,-9.195 -22.13,0 -45.97,9.539 -56.52,24.86 -10.56,15.324 -16.35,40.175 -16.35,70.82 0,22.133 3.07,41.887 9.2,59.25 9.53,26.902 30.98,39.5 58.23,39.5 18.04,0 31.67,-5.106 50.73,-18.047 l 12.59,17.367 c -17.7,15.324 -39.15,23.156 -64,23.156"
         style="fill:#ffffff;fill-opacity:1;fill-rule:nonzero;stroke:none"
         id="path18"
         inkscape:connector-curvature="0" /><path
         d="m 1859.73,637.852 c 0,-55.844 26.56,-90.235 73.22,-90.235 42.56,0 72.86,29.965 72.86,86.488 0,27.583 -5.11,47.672 -15.66,62.997 -11.58,16.687 -29.97,29.621 -58.23,29.621 -44.61,0 -72.19,-33.711 -72.19,-88.871 z m 107.95,45.289 c 5.44,-11.235 7.83,-27.243 7.83,-51.075 0,-16.683 -1.37,-26.222 -5.11,-36.777 -5.79,-16.348 -19.07,-25.539 -36.77,-25.539 -14.65,0 -28.27,6.813 -34.4,17.027 -6.46,10.551 -10.56,31.668 -10.56,55.504 0,20.094 2.73,33.711 8.17,44.266 5.8,11.23 19.76,18.383 34.74,18.383 13.96,0 28.94,-6.805 36.1,-21.789"
         style="fill:#ffffff;fill-opacity:1;fill-rule:evenodd;stroke:none"
         id="path20"
         inkscape:connector-curvature="0" /><path
         d="m 2081.32,759.414 c 0,25.879 -4.43,40.18 -4.43,40.18 l -26.55,-5.106 c 0,0 4.08,-12.597 4.08,-34.73 l 0,-179.793 c 0,-12.254 2.73,-19.41 8.18,-24.176 5.1,-4.769 11.92,-7.148 20.09,-7.148 7.15,0 10.22,0.679 17.02,3.746 l -5.45,17.363 c 0,0 -2.38,-0.68 -3.4,-0.68 -7.49,0 -9.54,3.746 -9.54,17.028 l 0,173.316"
         style="fill:#ffffff;fill-opacity:1;fill-rule:nonzero;stroke:none"
         id="path22"
         inkscape:connector-curvature="0" /><path
         d="m 2227.3,788.703 c -9.87,6.469 -22.81,9.871 -37.46,9.871 -12.59,0 -21.79,-2.722 -29.96,-8.855 -7.15,-5.446 -18.73,-16.344 -18.73,-41.539 l 0,-26.563 -16.34,0 0,-20.09 16.34,0 0,-149.48 27.92,0 0,149.48 38.82,0 8.17,20.09 -46.99,0 0,26.219 c 0,19.41 8.18,29.961 23.16,29.961 9.19,0 18.73,-4.082 25.2,-7.828 l 9.87,18.734"
         style="fill:#ffffff;fill-opacity:1;fill-rule:nonzero;stroke:none"
         id="path24"
         inkscape:connector-curvature="0" /><path
         d="m 2289.9,728.086 c -35.41,0 -60.27,-21.453 -60.27,-52.094 0,-23.496 14.98,-40.867 42.91,-46.652 l 21.11,-4.426 c 19.4,-4.09 27.92,-12.601 27.92,-27.922 0,-18.051 -13.62,-29.281 -34.39,-29.281 -18.73,0 -36.44,5.445 -53.8,16 l -10.22,-19.746 c 17.37,-10.563 40.86,-17.031 62.31,-17.031 38.14,0 64.02,22.476 64.02,55.504 0,25.199 -14.64,40.863 -45.29,47.332 l -22.47,4.765 c -18.05,3.746 -24.52,11.582 -24.52,24.52 0,16.683 12.6,27.922 32.01,27.922 14.98,0 27.58,-5.106 42.56,-12.258 l 9.88,19.75 c -14.3,8.172 -34.05,13.617 -51.76,13.617"
         style="fill:#ffffff;fill-opacity:1;fill-rule:nonzero;stroke:none"
         id="path26"
         inkscape:connector-curvature="0" /><path
         d="m 2453.59,726.047 c -18.06,0 -32.7,-6.473 -45.97,-19.754 -14.65,-14.637 -25.55,-35.066 -25.55,-72.188 0,-25.195 5.11,-43.925 16.35,-60.273 11.92,-17.016 29.96,-25.535 54.14,-25.535 21.11,0 36.09,6.469 51.76,22.469 l -14.64,17.031 c -9.88,-11.914 -22.81,-18.387 -36.44,-18.387 -27.24,0 -41.88,20.77 -41.88,58.91 0,24.852 3.06,43.586 9.53,55.5 6.13,11.578 18.73,19.067 32.01,19.067 12.94,0 20.43,-3.742 32.35,-13.621 l 14.64,18.39 c -12.26,10.215 -24.85,18.391 -46.3,18.391"
         style="fill:#ffffff;fill-opacity:1;fill-rule:nonzero;stroke:none"
         id="path28"
         inkscape:connector-curvature="0" /><path
         d="m 2543.1,761.117 0,-209.07 26.56,0 0,120.535 c 14.64,18.047 33.03,28.606 49.38,28.606 8.51,0 15.66,-2.727 19.75,-6.813 4.76,-4.762 6.46,-12.598 6.46,-25.199 l 0,-117.129 26.22,0 0,121.555 c 0,12.261 -0.68,17.707 -2.72,24.523 -4.77,15.664 -23.16,26.895 -43.59,26.895 -21.79,0 -41.2,-12.598 -56.52,-26.895 0,0 1.02,12.258 1.02,23.148 l 0,39.504 c 0,25.879 -4.43,40.18 -4.43,40.18 l -26.56,-5.105 c 0,0 4.43,-12.602 4.43,-34.735"
         style="fill:#ffffff;fill-opacity:1;fill-rule:evenodd;stroke:none"
         id="path30"
         inkscape:connector-curvature="0" /><path
         d="m 2725.49,595.629 c 0,-9.879 1.36,-18.731 4.42,-25.199 7.16,-14.981 23.16,-24.176 44.62,-24.176 23.15,0 40.86,8.512 53.79,25.879 2.39,-11.235 7.15,-18.047 18.39,-27.242 l 17.02,18.047 c -8.5,7.828 -11.57,16.351 -11.57,37.8 l 0,123.602 -26.22,-4.426 0,-120.195 c -9.2,-18.391 -26.56,-30.649 -43.25,-30.649 -7.49,0 -15.32,2.043 -20.77,5.789 -7.83,5.446 -10.21,12.598 -10.21,28.602 l 0,121.906 -26.22,-5.109 0,-124.629"
         style="fill:#ffffff;fill-opacity:1;fill-rule:nonzero;stroke:none"
         id="path32"
         inkscape:connector-curvature="0" /><path
         d="m 2939.63,759.414 c 0,25.879 -4.43,40.18 -4.43,40.18 l -26.55,-5.106 c 0,0 4.08,-12.597 4.08,-34.73 l 0,-179.793 c 0,-12.254 2.72,-19.41 8.17,-24.176 5.11,-4.769 11.92,-7.148 20.1,-7.148 7.14,0 10.21,0.679 17.02,3.746 l -5.45,17.363 c 0,0 -2.38,-0.68 -3.41,-0.68 -7.48,0 -9.53,3.746 -9.53,17.028 l 0,173.316"
         style="fill:#ffffff;fill-opacity:1;fill-rule:nonzero;stroke:none"
         id="path34"
         inkscape:connector-curvature="0" /><path
         d="m 3066.2,570.43 c -17.03,0 -32.69,6.133 -42.22,20.777 -5.79,8.852 -7.83,21.106 -7.83,37.113 l 0,4.082 105.89,0 0,3.746 c -0.68,40.524 -4.76,56.524 -19.4,71.508 -11.59,11.918 -27.59,18.391 -45.98,18.391 -20.43,0 -37.11,-7.496 -50.73,-23.5 -14.3,-17.024 -20.43,-35.414 -20.43,-64.016 0,-56.183 28.27,-90.234 75.25,-90.234 21.79,0 42.22,7.492 57.21,21.113 l -10.22,17.028 c -11.92,-10.899 -25.2,-16.008 -41.54,-16.008 z m -10.9,134.843 c 12.95,0 24.86,-5.789 30.65,-14.98 5.1,-8.176 7.49,-19.414 7.84,-37.797 l -77.64,0 c 1.36,35.067 14.98,52.777 39.15,52.777"
         style="fill:#ffffff;fill-opacity:1;fill-rule:evenodd;stroke:none"
         id="path36"
         inkscape:connector-curvature="0" /><path
         d="m 1871.43,21.918 45.95,0 22.1,283.848 c 1.75,24.425 4.65,77.355 4.65,77.355 0,0 6.98,-33.156 19.78,-77.941 l 79.1,-283.262 40.72,0 85.5,297.801 c 7.56,26.179 15.7,62.816 15.7,62.816 0,0 1.16,-42.457 2.91,-68.043 l 23.26,-292.574 47.7,0 -34.31,399.012 -70.38,0 -75.03,-265.235 c -9.31,-33.152 -14.55,-65.1442 -14.55,-65.1442 0,0 -4.65,30.8322 -15.7,69.8012 l -72.7,260.578 -69.8,0 -34.9,-399.012"
         style="fill:#ffffff;fill-opacity:1;fill-rule:nonzero;stroke:none"
         id="path38"
         inkscape:connector-curvature="0" /><path
         d="m 2358.75,247.598 c 18.61,16.871 59.91,34.32 92.49,34.32 18.03,0 29.66,-5.238 38.96,-15.707 8.15,-9.301 9.31,-19.773 9.31,-45.371 l 0,-20.352 c 0,0 -8.14,0.575 -20.35,0.575 -97.14,0 -153.55,-38.383 -153.55,-104.1138 0,-38.9726 21.52,-82.5898 93.05,-82.5898 33.16,0 55.84,11.0469 83.76,38.9687 5.23,-20.3593 19.78,-36.0586 39.55,-42.4609 l 23.27,32.5742 c -21.52,11.6367 -24.43,23.8477 -23.27,70.9566 l 2.33,95.391 c 0.58,26.172 0,48.281 -6.4,63.981 -12.22,29.664 -40.13,45.371 -80.27,45.371 -41.87,0 -83.17,-13.375 -121.56,-38.969 l 22.68,-32.574 z M 2496.6,93.4609 c -13.37,-27.332 -40.71,-45.3711 -70.38,-45.3711 -33.15,0 -50.02,18.6133 -50.02,52.9332 0,44.207 26.18,69.215 99.46,69.215 8.15,0 15.13,-0.586 22.69,-1.16 l -1.75,-75.6171"
         style="fill:#ffffff;fill-opacity:1;fill-rule:evenodd;stroke:none"
         id="path40"
         inkscape:connector-curvature="0" /><path
         d="m 2641.27,245.273 0,-223.355 45.37,0 0,181.473 c 0,23.843 3.49,32.57 16.87,45.953 13.38,13.375 30.83,20.937 48.28,20.937 4.65,0 9.89,-1.16 12.8,-2.32 l 18.61,49.43 c 0,0 -8.15,2.914 -15.71,2.914 -29.66,0 -60.48,-18.61 -81.43,-48.282 1.75,24.43 -9.3,47.118 -9.3,47.118 l -45.37,-12.211 c 0,0 9.88,-19.2 9.88,-61.657"
         style="fill:#ffffff;fill-opacity:1;fill-rule:nonzero;stroke:none"
         id="path42"
         inkscape:connector-curvature="0" /><path
         d="m 2932.68,319.141 c -30.84,0 -55.85,-11.051 -78.52,-33.735 -25.02,-25.011 -43.63,-59.906 -43.63,-123.312 0,-43.035 8.72,-75.0276 27.92,-102.9534 20.36,-29.0703 51.18,-43.625 92.48,-43.625 36.07,0 61.65,11.0547 88.41,38.3907 l -25.01,29.082 c -16.87,-20.3516 -38.97,-31.4063 -62.24,-31.4063 -46.54,0 -71.54,35.4844 -71.54,100.625 0,42.461 5.23,74.453 16.28,94.805 10.47,19.781 32,32.574 54.69,32.574 22.09,0 34.89,-6.391 55.25,-23.262 l 25.01,31.406 c -20.94,17.45 -42.46,31.411 -79.1,31.411"
         style="fill:#ffffff;fill-opacity:1;fill-rule:nonzero;stroke:none"
         id="path44"
         inkscape:connector-curvature="0" /><path
         d="m 3065.81,168.492 c 0,-95.3904 45.37,-154.1326 125.05,-154.1326 72.71,0 124.48,51.1836 124.48,147.7346 0,47.121 -8.73,81.429 -26.76,107.601 -19.78,28.508 -51.19,50.61 -99.46,50.61 -76.2,0 -123.31,-57.586 -123.31,-151.813 z m 184.39,77.36 c 9.3,-19.192 13.37,-46.536 13.37,-87.243 0,-28.5 -2.32,-44.785 -8.73,-62.8238 -9.88,-27.918 -32.57,-43.6172 -62.81,-43.6172 -25.01,0 -48.28,11.6289 -58.75,29.082 -11.05,18.0273 -18.04,54.094 -18.04,94.805 0,34.32 4.67,57.582 13.97,75.617 9.88,19.187 33.74,31.41 59.33,31.41 23.84,0 49.43,-11.637 61.66,-37.23"
         style="fill:#ffffff;fill-opacity:1;fill-rule:evenodd;stroke:none"
         id="path46"
         inkscape:connector-curvature="0" /><path
         d="m 3645.47,429.652 c -77.36,0 -129.13,-46.531 -129.13,-114.582 0,-25.593 8.73,-47.695 25.01,-65.148 15.71,-16.285 34.9,-24.422 70.97,-35.484 l 40.13,-12.211 c 48.27,-14.536 71.54,-38.969 71.54,-74.446 0,-23.269 -9.31,-42.4646 -28.5,-57.0037 -16.86,-12.8007 -33.15,-17.4492 -63.4,-17.4492 -40.13,0 -73.87,10.4688 -107.02,34.3242 l -20.94,-37.2382 c 39.55,-24.4219 80.27,-36.0547 127.96,-36.0547 36.65,0 63.4,7.5586 89.57,24.4297 35.48,22.6757 55.26,58.7461 55.26,95.9689 0,25.012 -9.89,51.769 -26.17,70.379 -16.29,18.613 -34.9,29.086 -70.38,40.136 l -45.95,14.536 c -47.11,15.121 -66.31,33.16 -66.31,65.144 0,40.719 29.66,65.731 79.68,65.731 34.32,0 58.76,-8.727 97.14,-33.735 l 20.94,34.309 c -37.81,25.597 -77.36,38.394 -120.4,38.394"
         style="fill:#ffffff;fill-opacity:1;fill-rule:nonzero;stroke:none"
         id="path48"
         inkscape:connector-curvature="0" /><path
         d="m 3959.53,319.141 c -30.84,0 -55.85,-11.051 -78.52,-33.735 -25.03,-25.011 -43.63,-59.906 -43.63,-123.312 0,-43.035 8.72,-75.0276 27.92,-102.9534 20.36,-29.0703 51.18,-43.625 92.48,-43.625 36.06,0 61.65,11.0547 88.41,38.3907 l -25.01,29.082 C 4004.3,62.6367 3982.21,51.582 3958.94,51.582 c -46.53,0 -71.54,35.4844 -71.54,100.625 0,42.461 5.23,74.453 16.28,94.805 10.48,19.781 32,32.574 54.68,32.574 22.1,0 34.9,-6.391 55.26,-23.262 l 25.01,31.406 c -20.94,17.45 -42.46,31.411 -79.1,31.411"
         style="fill:#ffffff;fill-opacity:1;fill-rule:nonzero;stroke:none"
         id="path50"
         inkscape:connector-curvature="0" /><path
         d="m 4112.44,379.047 0,-357.129 45.36,0 0,205.902 c 25.02,30.828 56.42,48.86 84.35,48.86 14.53,0 26.75,-4.657 33.73,-11.637 8.14,-8.133 11.05,-21.52 11.05,-43.043 l 0,-200.082 44.78,0 0,207.648 c 0,20.942 -1.16,30.243 -4.64,41.879 -8.16,26.758 -39.57,45.946 -74.46,45.946 -37.22,0 -70.38,-21.524 -96.56,-45.946 0,0 1.75,20.938 1.75,39.547 l 0,67.481 c 0,44.199 -7.56,68.632 -7.56,68.632 l -45.36,-8.726 c 0,0 7.56,-21.524 7.56,-59.332"
         style="fill:#ffffff;fill-opacity:1;fill-rule:evenodd;stroke:none"
         id="path52"
         inkscape:connector-curvature="0" /><path
         d="m 4425.73,246.438 0,-224.52 43.62,0 0,216.367 c 30.24,27.344 51.77,38.395 73.87,38.395 13.38,0 22.68,-3.485 29.67,-11.637 6.4,-8.133 8.13,-19.77 8.13,-37.223 l 0,-205.902 45.95,0 0,211.719 c 30.25,27.922 50.61,44.785 76.78,44.785 24.43,0 37.23,-14.539 37.23,-42.461 l 0,-214.043 46.53,0 0,218.703 c 0,45.945 -29.66,78.52 -72.71,78.52 -29.66,0 -65.14,-18.614 -93.05,-48.282 -10.48,30.836 -38.98,48.282 -67.48,48.282 -29.66,0 -65.14,-22.102 -84.33,-43.625 0,20.351 -10.48,43.039 -10.48,43.039 l -44.21,-10.465 c 0,0 10.48,-19.785 10.48,-61.652"
         style="fill:#ffffff;fill-opacity:1;fill-rule:nonzero;stroke:none"
         id="path54"
         inkscape:connector-curvature="0" /><path
         d="m 4881.05,96.3711 c 0,-16.8711 2.34,-31.9922 7.56,-43.043 12.23,-25.5937 39.56,-41.2968 76.21,-41.2968 39.55,0 69.79,14.539 91.89,44.2109 4.08,-19.2031 12.22,-30.8359 31.41,-46.53517 l 29.08,30.82427 c -14.54,13.375 -19.77,27.9218 -19.77,64.5667 l 0,211.132 -44.78,-7.562 0,-205.316 C 5036.93,71.9375 5007.27,51 4978.77,51 c -12.79,0 -26.17,3.4922 -35.47,9.8906 -13.39,9.3008 -17.46,21.5235 -17.46,48.8554 l 0,208.231 -44.79,-8.723 0,-212.8829"
         style="fill:#ffffff;fill-opacity:1;fill-rule:nonzero;stroke:none"
         id="path56"
         inkscape:connector-curvature="0" /><path
         d="m 5303.85,319.141 c -30.83,0 -55.84,-11.051 -78.52,-33.735 -25.02,-25.011 -43.63,-59.906 -43.63,-123.312 0,-43.035 8.73,-75.0276 27.92,-102.9534 20.36,-29.0703 51.18,-43.625 92.48,-43.625 36.07,0 61.65,11.0547 88.41,38.3907 l -25.01,29.082 c -16.87,-20.3516 -38.97,-31.4063 -62.24,-31.4063 -46.53,0 -71.54,35.4844 -71.54,100.625 0,42.461 5.24,74.453 16.29,94.805 10.47,19.781 31.99,32.574 54.68,32.574 22.1,0 34.89,-6.391 55.26,-23.262 l 25,31.406 c -20.94,17.45 -42.46,31.411 -79.1,31.411"
         style="fill:#ffffff;fill-opacity:1;fill-rule:nonzero;stroke:none"
         id="path58"
         inkscape:connector-curvature="0" /><path
         d="m 5456.17,379.047 0,-357.129 45.37,0 0,356.555 c 0,44.199 -7.56,68.632 -7.56,68.632 l -45.36,-8.726 c 0,0 7.55,-21.524 7.55,-59.332 z m 47.12,-193.106 133.2,-164.023 60.48,0 -140.17,164.023 114,125.637 -57,0 -110.51,-125.637"
         style="fill:#ffffff;fill-opacity:1;fill-rule:evenodd;stroke:none"
         id="path60"
         inkscape:connector-curvature="0" /></g></g></svg>