<?xml version="1.0" encoding="UTF-8" standalone="no"?>
<!-- Created with Inkscape (http://www.inkscape.org/) -->

<svg
   xmlns:dc="http://purl.org/dc/elements/1.1/"
   xmlns:cc="http://creativecommons.org/ns#"
   xmlns:rdf="http://www.w3.org/1999/02/22-rdf-syntax-ns#"
   xmlns:svg="http://www.w3.org/2000/svg"
   xmlns="http://www.w3.org/2000/svg"
   xmlns:sodipodi="http://sodipodi.sourceforge.net/DTD/sodipodi-0.dtd"
   xmlns:inkscape="http://www.inkscape.org/namespaces/inkscape"
   width="309.04099"
   height="118.8975"
   id="svg3272"
   version="1.1"
   inkscape:version="0.48.5 r10040"
   sodipodi:docname="logo.svg">
  <defs
     id="defs3274">
    <clipPath
       clipPathUnits="userSpaceOnUse"
       id="clipPath160">
      <path
         inkscape:connector-curvature="0"
         d="m 0,0 1190.552,0 0,1133.858 L 0,1133.858 0,0 z"
         id="path162" />
    </clipPath>
  </defs>
  <sodipodi:namedview
     id="base"
     pagecolor="#ffffff"
     bordercolor="#666666"
     borderopacity="1.0"
     inkscape:pageopacity="0"
     inkscape:pageshadow="2"
     inkscape:zoom="0.94472656"
     inkscape:cx="325.17391"
     inkscape:cy="40.02622"
     inkscape:document-units="px"
     inkscape:current-layer="layer1"
     showgrid="false"
     inkscape:snap-bbox="true"
     showguides="false"
     fit-margin-top="-2"
     fit-margin-left="0"
     fit-margin-right="0"
     fit-margin-bottom="0"
     inkscape:window-width="1600"
     inkscape:window-height="843"
     inkscape:window-x="0"
     inkscape:window-y="27"
     inkscape:window-maximized="1">
    <inkscape:grid
       type="xygrid"
       id="grid3371"
       empspacing="5"
       visible="true"
       enabled="true"
       snapvisiblegridlinesonly="true"
       originx="-16.294384px"
       originy="-911.84476px" />
    <sodipodi:guide
       position="-16.294384,-911.84476"
       orientation="0,744.09448"
       id="guide3373" />
    <sodipodi:guide
       position="727.8001,-911.84476"
       orientation="-1052.3622,0"
       id="guide3375" />
    <sodipodi:guide
       position="727.8001,140.51744"
       orientation="0,-744.09448"
       id="guide3377" />
    <sodipodi:guide
       position="-16.294384,140.51744"
       orientation="1052.3622,0"
       id="guide3379" />
  </sodipodi:namedview>
  <metadata
     id="metadata3277">
    <rdf:RDF>
      <cc:Work
         rdf:about="">
        <dc:format>image/svg+xml</dc:format>
        <dc:type
           rdf:resource="http://purl.org/dc/dcmitype/StillImage" />
        <dc:title></dc:title>
      </cc:Work>
    </rdf:RDF>
  </metadata>
  <g
     inkscape:label="Ebene 1"
     inkscape:groupmode="layer"
     id="layer1"
     transform="translate(-16.294384,-21.619922)">
    <g
       id="g142"
       transform="matrix(1.25,0,0,-1.25,98.033134,19.619922)">
      <path
         d="m 0,0 -64.674,0 0,-25.056 36.416,-46.129 -37.133,0 0,-25.325 64.676,0 0,25.325 -35.97,45.859 36.685,0 L 0,0 z"
         style="fill:#96d550;fill-opacity:1;fill-rule:nonzero;stroke:none"
         id="path144"
         inkscape:connector-curvature="0" />
    </g>
    <g
       id="g146"
       transform="matrix(1.25,0,0,-1.25,325.33538,19.619922)">
      <path
         d="M 0,0 -25.944,0 -34.056,-18.604 -42.168,0 l -25.946,0 21.085,-48.361 -21.085,-48.357 25.946,0 8.112,18.604 8.112,-18.604 25.944,0 -21.083,48.357 L 0,0 z"
         style="fill:#96d550;fill-opacity:1;fill-rule:nonzero;stroke:none"
         id="path148"
         inkscape:connector-curvature="0" />
    </g>
    <path
       d="m 200.79563,139.96942 30.92,0 0,-120.348745 -30.92,0 0,120.348745 z"
       style="fill:#96d550;fill-opacity:1;fill-rule:nonzero;stroke:none"
       id="path150"
       inkscape:connector-curvature="0" />
    <g
       id="g152"
       transform="matrix(1.25,0,0,-1.25,107.02026,19.619922)">
      <path
         d="m 0,0 0,-24.738 21.136,0 0,-71.543 24.738,0 0,71.543 21.137,0 L 67.011,0 0,0 z"
         style="fill:#96d550;fill-opacity:1;fill-rule:nonzero;stroke:none"
         id="path154"
         inkscape:connector-curvature="0" />
    </g>
    <g
       id="g156"
       transform="matrix(1.25,0,0,-1.25,-573.27937,1158.7933)">
      <g
         id="g158"
         clip-path="url(#clipPath160)">
        <g
           id="g164"
           transform="translate(592.946,848.6349)">
          <path
             d="m 0,0 c -0.366,0 -0.722,0.162 -0.955,0.453 -0.289,0.362 -0.357,0.855 -0.158,1.273 0.916,1.927 2.059,3.934 3.393,5.962 1.32,2.019 2.739,3.966 4.215,5.783 1.479,1.818 2.976,3.453 4.453,4.861 1.541,1.469 2.924,2.533 4.228,3.257 0.184,0.102 0.386,0.153 0.588,0.153 0.314,0 0.626,-0.124 0.858,-0.359 0.382,-0.384 0.462,-0.975 0.197,-1.448 C 15.822,18.167 14.89,16.202 14.046,14.095 13.155,11.883 12.153,9.778 11.066,7.837 9.944,5.822 8.594,4.077 7.057,2.658 5.414,1.139 3.36,0.267 0.953,0.067 0.417,0.062 0.275,0.031 0.275,0.031 0.18,0.011 0.089,0 0,0"
             style="fill:#96d550;fill-opacity:1;fill-rule:nonzero;stroke:none"
             id="path166"
             inkscape:connector-curvature="0" />
        </g>
        <g
           id="g168"
           transform="translate(608.7097,869.165)">
          <path
             d="m 0,0 c -1.03,-1.828 -1.976,-3.822 -2.842,-5.985 -0.871,-2.161 -1.841,-4.201 -2.912,-6.117 -1.068,-1.917 -2.327,-3.543 -3.775,-4.881 -1.448,-1.339 -3.244,-2.095 -5.381,-2.274 -0.404,0 -0.697,-0.023 -0.874,-0.067 0.892,1.872 1.994,3.813 3.311,5.818 1.314,2.007 2.696,3.9 4.145,5.683 1.448,1.781 2.896,3.364 4.348,4.749 1.449,1.38 2.774,2.405 3.98,3.074 m 0,2.421 c -0.402,0 -0.806,-0.098 -1.175,-0.303 -1.396,-0.775 -2.86,-1.9 -4.475,-3.439 -1.514,-1.444 -3.048,-3.116 -4.558,-4.974 -1.502,-1.85 -2.945,-3.829 -4.291,-5.885 -1.361,-2.072 -2.531,-4.126 -3.471,-6.103 -0.402,-0.844 -0.282,-1.847 0.309,-2.573 0.467,-0.571 1.161,-0.889 1.877,-0.889 0.193,0 0.39,0.021 0.583,0.071 l 0.13,-0.004 0.161,0 0.202,0.007 c 2.681,0.224 4.977,1.203 6.823,2.911 1.631,1.505 3.061,3.349 4.247,5.48 1.109,1.983 2.134,4.133 3.041,6.389 0.826,2.063 1.736,3.98 2.707,5.703 C 2.642,-0.244 2.481,0.939 1.718,1.706 1.252,2.176 0.629,2.421 0,2.421"
             style="fill:#231f20;fill-opacity:1;fill-rule:nonzero;stroke:none"
             id="path170"
             inkscape:connector-curvature="0" />
        </g>
        <g
           id="g172"
           transform="translate(577.5171,890.5938)">
          <path
             d="m 0,0 c -1.672,-0.468 -3.724,-0.759 -6.149,-0.868 -1.537,-0.071 -3.174,-0.105 -4.914,-0.105 -1.013,0 -2.061,0.011 -3.145,0.036 -2.944,0.069 -5.931,0.111 -8.962,0.136 -0.309,0.002 -0.616,0.004 -0.924,0.004 -2.707,0 -5.352,-0.08 -7.934,-0.238 -2.876,-0.179 -5.459,-0.591 -7.759,-1.237 -2.296,-0.648 -4.177,-1.583 -5.647,-2.809 -1.471,-1.226 -2.297,-2.887 -2.474,-4.979 0.268,1.513 0.948,2.639 2.038,3.374 1.091,0.735 2.463,1.216 4.115,1.437 0.913,0.124 1.896,0.184 2.947,0.184 0.844,0 1.734,-0.038 2.667,-0.118 2.094,-0.178 4.304,-0.424 6.62,-0.735 l -0.067,0 c 0.582,-0.444 0.604,-1.459 0.067,-3.042 -0.536,-1.581 -1.424,-3.522 -2.676,-5.816 -1.246,-2.296 -2.718,-4.848 -4.41,-7.655 -1.695,-2.809 -3.389,-5.642 -5.084,-8.492 -1.694,-2.851 -3.251,-5.629 -4.678,-8.323 -1.428,-2.7 -2.496,-5.094 -3.209,-7.19 -0.716,-2.096 -0.951,-3.777 -0.706,-5.048 0.248,-1.268 1.197,-1.905 2.846,-1.905 -0.448,0 -0.535,0.458 -0.271,1.37 0.271,0.911 0.804,2.148 1.606,3.711 0.802,1.559 1.816,3.366 3.042,5.416 1.226,2.048 2.565,4.222 4.013,6.52 1.45,2.294 2.962,4.644 4.548,7.053 1.579,2.407 3.118,4.725 4.614,6.955 1.49,2.227 2.907,4.31 4.242,6.251 1.337,1.939 2.474,3.598 3.411,4.983 -0.134,0.668 -0.356,1.29 -0.667,1.87 -0.312,0.491 -0.739,1.002 -1.27,1.537 -0.537,0.535 -1.272,0.981 -2.207,1.339 2.183,-0.358 4.379,-0.68 6.585,-0.969 2.207,-0.29 4.347,-0.47 6.417,-0.535 0.449,-0.015 0.895,-0.022 1.335,-0.022 1.59,0 3.119,0.096 4.585,0.289 1.874,0.244 3.544,0.746 5.016,1.505 1.471,0.755 2.696,1.814 3.676,3.174 0.979,1.357 1.648,3.108 2.005,5.247 C 2.752,1.237 1.67,0.469 0,0"
             style="fill:#ffffff;fill-opacity:1;fill-rule:nonzero;stroke:none"
             id="path174"
             inkscape:connector-curvature="0" />
        </g>
        <g
           id="g176"
           transform="translate(581.4685,895.2147)">
          <path
             d="m 0,0 c -0.235,0.071 -0.475,0.105 -0.709,0.105 -0.926,0 -1.798,-0.532 -2.202,-1.411 -0.169,-0.37 -0.787,-0.728 -1.695,-0.983 -1.492,-0.418 -3.379,-0.68 -5.603,-0.78 -1.509,-0.069 -3.124,-0.104 -4.805,-0.104 -0.995,0 -2.025,0.011 -3.091,0.037 -2.738,0.063 -5.681,0.109 -8.996,0.136 l -0.944,0.004 c -2.744,0 -5.464,-0.082 -8.081,-0.242 -3.03,-0.189 -5.811,-0.633 -8.267,-1.323 -2.618,-0.738 -4.819,-1.843 -6.544,-3.282 -1.981,-1.65 -3.103,-3.882 -3.334,-6.635 -0.11,-1.289 0.815,-2.437 2.099,-2.605 0.106,-0.014 0.211,-0.02 0.317,-0.02 1.157,0 2.174,0.83 2.381,2 0.198,1.129 0.669,1.561 1.006,1.788 0.777,0.522 1.814,0.875 3.083,1.046 0.805,0.107 1.687,0.162 2.626,0.162 0.771,0 1.601,-0.036 2.461,-0.109 1.457,-0.126 2.987,-0.284 4.568,-0.475 l -0.036,-0.113 c -0.499,-1.468 -1.343,-3.296 -2.507,-5.432 -1.214,-2.234 -2.678,-4.777 -4.359,-7.566 -1.697,-2.811 -3.395,-5.649 -5.092,-8.505 -1.672,-2.815 -3.266,-5.649 -4.735,-8.427 -1.479,-2.796 -2.611,-5.334 -3.363,-7.542 -0.862,-2.522 -1.12,-4.579 -0.791,-6.288 0.473,-2.423 2.425,-3.867 5.223,-3.867 1.337,0 2.422,1.084 2.422,2.421 0,0.382 -0.09,0.744 -0.246,1.064 0.204,0.579 0.591,1.503 1.314,2.911 0.782,1.521 1.781,3.296 2.965,5.28 1.195,1.995 2.536,4.173 3.984,6.47 1.546,2.447 3.025,4.741 4.523,7.014 1.575,2.403 3.111,4.713 4.602,6.938 1.485,2.22 2.897,4.294 4.226,6.226 1.341,1.944 2.482,3.609 3.422,4.999 0.364,0.538 0.495,1.199 0.368,1.836 -0.062,0.303 -0.137,0.602 -0.226,0.893 2.285,-0.299 4.517,-0.484 6.633,-0.55 0.473,-0.016 0.945,-0.025 1.412,-0.025 1.681,0 3.329,0.105 4.899,0.311 2.138,0.278 4.093,0.868 5.811,1.754 1.803,0.924 3.327,2.241 4.531,3.911 1.196,1.657 2.012,3.764 2.429,6.264 C 1.879,-1.517 1.161,-0.357 0,0 m -6.391,-10.737 c -1.472,-0.759 -3.142,-1.261 -5.015,-1.505 -1.467,-0.192 -2.995,-0.289 -4.585,-0.289 -0.44,0 -0.886,0.007 -1.335,0.022 -2.071,0.065 -4.21,0.246 -6.417,0.535 -2.206,0.289 -4.402,0.611 -6.585,0.969 0.935,-0.358 1.67,-0.804 2.206,-1.339 0.531,-0.534 0.959,-1.046 1.27,-1.537 0.311,-0.58 0.533,-1.202 0.668,-1.87 -0.937,-1.384 -2.074,-3.044 -3.411,-4.983 -1.336,-1.941 -2.753,-4.024 -4.243,-6.251 -1.495,-2.23 -3.034,-4.548 -4.613,-6.955 -1.587,-2.408 -3.099,-4.759 -4.549,-7.053 -1.448,-2.298 -2.787,-4.472 -4.013,-6.52 -1.226,-2.05 -2.239,-3.857 -3.041,-5.416 -0.803,-1.563 -1.336,-2.8 -1.607,-3.711 -0.264,-0.912 -0.176,-1.37 0.271,-1.37 -1.648,0 -2.598,0.637 -2.845,1.905 -0.246,1.271 -0.011,2.952 0.706,5.048 0.713,2.096 1.781,4.49 3.209,7.19 1.426,2.694 2.984,5.472 4.677,8.323 1.696,2.851 3.389,5.683 5.085,8.492 1.692,2.807 3.164,5.359 4.41,7.655 1.252,2.294 2.139,4.236 2.676,5.816 0.536,1.583 0.515,2.598 -0.067,3.042 l 0.067,0 c -2.316,0.311 -4.526,0.557 -6.62,0.735 -0.934,0.08 -1.823,0.118 -2.667,0.118 -1.052,0 -2.034,-0.06 -2.948,-0.183 -1.651,-0.222 -3.023,-0.703 -4.115,-1.438 -1.089,-0.735 -1.77,-1.861 -2.037,-3.374 0.176,2.092 1.002,3.753 2.474,4.979 1.47,1.226 3.351,2.161 5.647,2.809 2.3,0.646 4.883,1.059 7.759,1.237 2.582,0.158 5.227,0.238 7.934,0.238 0.307,0 0.615,-0.002 0.924,-0.003 3.031,-0.026 6.018,-0.068 8.961,-0.137 1.085,-0.025 2.133,-0.036 3.146,-0.036 1.739,0 3.376,0.034 4.914,0.105 2.425,0.109 4.477,0.401 6.149,0.868 1.67,0.47 2.752,1.237 3.242,2.305 -0.357,-2.139 -1.027,-3.889 -2.005,-5.247 -0.981,-1.36 -2.205,-2.419 -3.677,-3.174"
             style="fill:#231f20;fill-opacity:1;fill-rule:nonzero;stroke:none"
             id="path178"
             inkscape:connector-curvature="0" />
        </g>
        <g
           id="g180"
           transform="translate(675.4395,880.4661)">
          <path
             d="m 0,0 c -0.404,-0.493 -1.073,-0.86 -2.009,-1.104 -0.935,-0.244 -2.048,-0.435 -3.343,-0.568 -1.294,-0.135 -2.696,-0.245 -4.214,-0.336 -1.513,-0.088 -3.072,-0.201 -4.679,-0.333 1.783,2.496 3.453,4.691 5.014,6.587 1.565,1.892 2.918,3.284 4.079,4.177 -1.025,0 -2.169,-0.146 -3.442,-0.435 -1.272,-0.291 -2.542,-0.656 -3.81,-1.104 -1.271,-0.444 -2.501,-0.935 -3.68,-1.47 -1.182,-0.535 -2.174,-1.07 -2.976,-1.605 0.269,-0.221 0.092,-1.002 -0.535,-2.339 -0.62,-1.337 -1.516,-3.033 -2.673,-5.083 -1.16,-0.357 -2.208,-0.779 -3.143,-1.27 -0.935,-0.491 -1.696,-1.113 -2.272,-1.87 1.248,0.935 2.761,1.468 4.548,1.603 -1.383,-2.407 -2.944,-5.025 -4.681,-7.856 -1.743,-2.83 -3.413,-5.585 -5.018,-8.259 -0.123,-0.207 -0.231,-0.395 -0.353,-0.6 l -4.593,0 c 0.802,-0.268 1.182,-0.936 1.137,-2.005 -0.047,-1.072 -0.369,-2.32 -0.968,-3.746 -0.606,-1.426 -1.406,-2.942 -2.409,-4.548 -1.002,-1.603 -2.074,-3.075 -3.212,-4.412 -1.132,-1.339 -2.262,-2.439 -3.375,-3.309 -1.115,-0.87 -2.07,-1.304 -2.874,-1.304 -0.801,0 -1.014,0.691 -0.635,2.074 0.378,1.38 1.111,3.118 2.206,5.212 1.09,2.097 2.409,4.359 3.946,6.789 1.536,2.429 3.053,4.69 4.547,6.788 1.49,2.094 2.841,3.833 4.044,5.214 1.202,1.382 2.028,2.072 2.474,2.072 -0.135,0.354 -0.346,0.757 -0.633,1.206 -0.293,0.442 -0.67,0.855 -1.139,1.235 -0.466,0.379 -1.024,0.713 -1.674,1.003 -0.646,0.291 -1.368,0.458 -2.17,0.502 l -0.191,0.003 c -0.888,0 -1.859,-0.278 -2.918,-0.84 -1.139,-0.602 -2.318,-1.416 -3.544,-2.44 -1.23,-1.026 -2.474,-2.239 -3.744,-3.644 -1.272,-1.406 -2.509,-2.887 -3.71,-4.448 0.977,1.474 1.924,2.9 2.839,4.279 0.911,1.383 1.792,2.674 2.641,3.881 -0.4,0.578 -1.002,1.113 -1.805,1.602 -0.667,0.402 -1.559,0.77 -2.672,1.105 -1.115,0.332 -2.522,0.502 -4.214,0.502 0.579,-0.446 0.726,-1.272 0.434,-2.475 -0.288,-1.204 -0.826,-2.639 -1.605,-4.313 -0.779,-1.67 -1.737,-3.522 -2.874,-5.55 -0.08,-0.144 -0.159,-0.29 -0.237,-0.433 l -4.277,0 c 0.804,-0.224 1.126,-0.866 0.97,-1.932 -0.159,-1.068 -0.635,-2.334 -1.439,-3.801 -0.801,-1.463 -1.85,-3.009 -3.14,-4.628 -1.296,-1.625 -2.691,-3.133 -4.181,-4.534 -1.494,-1.4 -2.985,-2.552 -4.481,-3.465 -1.493,-0.912 -2.839,-1.366 -4.046,-1.366 -1.158,0 -2.048,0.245 -2.672,0.735 -0.628,0.493 -1.014,1.171 -1.172,2.039 -0.156,0.871 -0.1,1.885 0.169,3.044 0.266,1.158 0.67,2.408 1.201,3.743 l 0.535,0 c 3.3,0.179 6.165,0.954 8.592,2.335 2.432,1.379 4.55,3.034 6.353,4.97 1.807,1.934 3.324,4.022 4.548,6.267 1.226,2.247 2.274,4.315 3.142,6.204 0.868,1.888 1.606,3.454 2.205,4.701 0.602,1.246 1.172,1.868 1.706,1.868 -1.018,0.291 -1.957,0.436 -2.816,0.436 -0.98,0 -1.859,-0.189 -2.631,-0.569 -1.451,-0.715 -2.73,-1.828 -3.845,-3.344 -2.273,-0.089 -4.505,-0.636 -6.686,-1.639 -2.185,-1.002 -4.248,-2.307 -6.184,-3.911 -1.941,-1.603 -3.704,-3.431 -5.286,-5.482 -0.426,-0.553 -0.781,-1.115 -1.168,-1.671 l -4.614,0 c 0.804,-0.224 1.205,-0.848 1.205,-1.874 0,-1.024 -0.277,-2.229 -0.834,-3.61 -0.562,-1.382 -1.33,-2.852 -2.31,-4.413 -0.977,-1.561 -2.038,-2.998 -3.177,-4.312 -1.135,-1.315 -2.283,-2.408 -3.44,-3.276 -1.159,-0.87 -2.21,-1.305 -3.145,-1.305 -0.624,0 -0.833,0.49 -0.635,1.472 0.2,0.979 0.726,2.229 1.57,3.742 4.239,7.669 8.015,14.221 11.336,19.659 3.318,5.438 6.119,9.984 8.392,13.641 2.272,3.655 3.987,6.542 5.148,8.659 1.159,2.116 1.703,3.721 1.636,4.814 -0.066,1.09 -0.77,1.792 -2.105,2.107 -1.337,0.311 -3.366,0.467 -6.084,0.467 0.535,0 0.681,-0.547 0.433,-1.637 -0.243,-1.095 -0.768,-2.565 -1.57,-4.414 -0.802,-1.852 -1.817,-4.002 -3.043,-6.452 -1.225,-2.453 -2.566,-5.016 -4.014,-7.69 -1.446,-2.673 -2.928,-5.382 -4.442,-8.123 -1.445,-2.609 -2.809,-5.09 -4.113,-7.455 l -4.445,0 c 0.801,-0.224 1.201,-0.848 1.201,-1.874 0,-1.024 -0.277,-2.229 -0.833,-3.61 -0.561,-1.382 -1.328,-2.852 -2.309,-4.413 -0.979,-1.561 -2.039,-2.998 -3.176,-4.312 -1.136,-1.315 -2.285,-2.408 -3.441,-3.276 -1.16,-0.87 -2.21,-1.305 -3.147,-1.305 -0.533,0 -0.733,0.403 -0.598,1.205 0.132,0.8 0.5,1.848 1.102,3.142 0.602,1.293 1.395,2.785 2.374,4.48 0.979,1.692 2.005,3.408 3.077,5.147 2.537,4.102 5.637,8.761 9.29,13.975 -0.4,0.579 -1.002,1.116 -1.804,1.603 -0.668,0.402 -1.559,0.772 -2.673,1.106 -1.115,0.335 -2.521,0.501 -4.215,0.501 0.713,0 1.073,-0.357 1.073,-1.07 0,-0.715 -0.247,-1.67 -0.738,-2.875 -0.131,1.205 -0.488,2.16 -1.068,2.875 -1.37,1.541 -2.854,2.31 -4.446,2.31 l -0.202,-0.003 c -1.67,-0.068 -3.353,-0.724 -5.047,-1.972 -1.693,-1.248 -3.356,-2.931 -4.981,-5.051 -1.63,-2.114 -3.089,-4.4 -4.379,-6.851 -1.293,-2.452 -2.374,-4.937 -3.245,-7.455 -0.868,-2.52 -1.425,-4.792 -1.672,-6.82 -0.242,-2.029 -0.124,-3.69 0.369,-4.98 0.491,-1.295 1.472,-1.943 2.942,-1.943 1.648,0 3.3,0.559 4.948,1.674 1.648,1.113 3.253,2.542 4.812,4.279 -0.535,-1.785 -0.668,-3.22 -0.4,-4.313 0.271,-1.092 1.179,-1.64 2.743,-1.64 1.337,0 2.673,0.304 4.01,0.905 1.337,0.602 2.643,1.404 3.913,2.408 1.27,1.003 2.474,2.149 3.613,3.442 l 0.138,0.171 c -0.154,-0.433 -0.316,-0.868 -0.444,-1.275 -0.356,-1.137 -0.509,-2.118 -0.469,-2.94 0.047,-0.826 0.295,-1.484 0.739,-1.974 0.447,-0.491 1.18,-0.737 2.204,-0.737 1.338,0 2.675,0.304 4.014,0.905 1.337,0.602 2.629,1.404 3.875,2.408 1.251,1.003 2.445,2.149 3.582,3.442 0.86,0.979 1.655,1.981 2.45,2.986 -0.251,-1.652 -0.233,-3.157 0.088,-4.49 0.382,-1.583 1.189,-2.853 2.441,-3.812 1.244,-0.958 3.051,-1.439 5.412,-1.439 1.472,0 2.944,0.304 4.416,0.905 1.47,0.602 2.918,1.404 4.347,2.408 1.425,1.003 2.795,2.149 4.108,3.442 0.95,0.932 1.845,1.881 2.711,2.835 -0.758,-1.749 -1.286,-3.328 -1.539,-4.707 -0.268,-1.472 -0.144,-2.652 0.371,-3.544 0.509,-0.891 1.616,-1.339 3.306,-1.339 -0.401,0 -0.599,0.257 -0.599,0.772 0,0.511 0.164,1.213 0.499,2.105 0.334,0.889 0.826,1.961 1.471,3.209 0.646,1.248 1.37,2.585 2.174,4.011 1.605,2.496 3.399,5.018 5.38,7.557 1.986,2.542 3.917,4.836 5.785,6.888 1.874,2.05 3.569,3.72 5.081,5.014 1.517,1.293 2.656,1.941 3.413,1.941 -4.461,-5.885 -7.961,-11.145 -10.499,-15.782 -1.071,-1.963 -1.996,-3.89 -2.774,-5.783 -0.782,-1.894 -1.226,-3.579 -1.339,-5.049 -0.111,-1.472 0.182,-2.652 0.871,-3.544 0.688,-0.891 1.949,-1.339 3.775,-1.339 1.116,0 2.265,0.304 3.448,0.905 1.179,0.602 2.337,1.404 3.476,2.408 1.135,1.003 2.249,2.149 3.34,3.442 0.171,0.204 0.321,0.415 0.49,0.621 -0.191,-0.637 -0.366,-1.243 -0.521,-1.823 -0.309,-1.161 -0.478,-2.152 -0.503,-2.977 -0.022,-0.825 0.158,-1.459 0.534,-1.906 0.381,-0.446 1.085,-0.67 2.109,-0.67 1.337,0 2.674,0.304 4.009,0.905 1.338,0.602 2.644,1.404 3.915,2.408 1.268,1.003 2.475,2.149 3.612,3.442 1.135,1.294 2.216,2.607 3.24,3.946 2.363,3.118 4.568,6.708 6.618,10.765 l -6.953,0 c 0.804,-0.224 1.204,-0.848 1.204,-1.874 0,-1.024 -0.287,-2.229 -0.869,-3.61 -0.579,-1.382 -1.348,-2.852 -2.307,-4.413 -0.959,-1.561 -2.018,-2.998 -3.178,-4.312 -1.159,-1.315 -2.314,-2.408 -3.475,-3.276 -1.161,-0.87 -2.205,-1.305 -3.142,-1.305 -0.622,0 -0.815,0.479 -0.569,1.438 0.245,0.958 0.749,2.217 1.506,3.776 0.446,0.848 1.268,2.331 2.474,4.448 1.201,2.118 2.638,4.569 4.314,7.356 1.67,2.785 3.498,5.739 5.481,8.859 1.981,3.12 3.979,6.129 5.983,9.027 1.47,-0.267 2.953,-0.48 4.448,-0.636 0.523,-0.055 1.041,-0.082 1.558,-0.082 0.96,0 1.912,0.094 2.856,0.282 1.448,0.291 2.831,0.902 4.144,1.839 C -2.332,-3.411 -1.119,-1.965 0,0 m -79.202,-24.807 c 1.313,2.006 2.696,3.9 4.144,5.683 1.448,1.781 2.896,3.364 4.348,4.748 1.45,1.381 2.774,2.405 3.98,3.075 -1.029,-1.828 -1.975,-3.822 -2.841,-5.985 -0.872,-2.162 -1.841,-4.201 -2.913,-6.117 -1.068,-1.917 -2.327,-3.544 -3.775,-4.881 -1.448,-1.339 -3.243,-2.095 -5.381,-2.274 -0.404,0 -0.697,-0.023 -0.873,-0.067 0.891,1.872 1.993,3.813 3.311,5.818 m -41.152,-10.197 c -1.248,-1.715 -2.495,-3.145 -3.743,-4.279 -1.25,-1.137 -2.34,-1.706 -3.277,-1.706 -0.939,0 -1.306,0.757 -1.104,2.274 0.2,1.515 0.746,3.396 1.637,5.65 0.89,2.249 2.063,4.645 3.511,7.188 1.448,2.54 2.955,4.847 4.512,6.921 1.561,2.072 3.1,3.687 4.613,4.846 1.038,0.793 1.971,1.19 2.799,1.19 0.382,0 0.742,-0.086 1.08,-0.255 0.4,-0.222 0.635,-0.657 0.704,-1.303 0.066,-0.645 -0.013,-1.415 -0.234,-2.306 l -4.214,0 c 0.802,-0.224 1.159,-0.983 1.072,-2.274 -0.093,-1.294 -0.47,-2.831 -1.137,-4.614 -0.67,-1.783 -1.563,-3.689 -2.678,-5.716 -1.114,-2.028 -2.292,-3.9 -3.541,-5.616"
             style="fill:#ffffff;fill-opacity:1;fill-rule:nonzero;stroke:none"
             id="path182"
             inkscape:connector-curvature="0" />
        </g>
        <g
           id="g184"
           transform="translate(676.811,882.4619)">
          <path
             d="m 0,0 c -0.418,0.287 -0.895,0.426 -1.37,0.426 -0.704,0 -1.399,-0.306 -1.876,-0.886 0,0 -0.181,-0.149 -0.745,-0.297 -0.824,-0.215 -1.827,-0.384 -2.98,-0.502 -1.081,-0.113 -2.276,-0.211 -3.566,-0.295 0.62,0.804 1.223,1.559 1.805,2.265 1.448,1.75 2.689,3.029 3.685,3.797 0.823,0.633 1.15,1.717 0.816,2.7 -0.333,0.98 -1.256,1.641 -2.293,1.641 -1.211,0 -2.512,-0.162 -3.978,-0.495 -1.379,-0.315 -2.749,-0.713 -4.079,-1.183 -1.328,-0.462 -2.634,-0.984 -3.875,-1.548 -1.292,-0.584 -2.411,-1.188 -3.32,-1.794 -0.637,-0.425 -1.035,-1.127 -1.074,-1.893 -0.011,-0.202 0.004,-0.404 0.044,-0.601 -0.064,-0.174 -0.171,-0.444 -0.353,-0.831 -0.508,-1.093 -1.206,-2.442 -2.134,-4.108 -0.94,-0.333 -1.819,-0.711 -2.616,-1.13 -1.253,-0.658 -2.287,-1.515 -3.073,-2.547 -0.731,-0.96 -0.643,-2.316 0.208,-3.172 0.32,-0.324 0.711,-0.539 1.128,-0.644 -0.517,-0.857 -1.054,-1.738 -1.605,-2.638 -0.207,-0.335 -0.413,-0.668 -0.616,-1.001 -0.024,0.189 -0.07,0.377 -0.141,0.559 -0.194,0.516 -0.474,1.057 -0.855,1.651 -0.454,0.686 -1.004,1.287 -1.655,1.812 -0.628,0.51 -1.372,0.959 -2.212,1.334 -0.908,0.409 -1.929,0.648 -3.026,0.708 -0.118,0.005 -0.22,0.009 -0.322,0.009 -1.284,0 -2.647,-0.379 -4.053,-1.125 -1.046,-0.553 -2.132,-1.269 -3.238,-2.135 -0.477,0.465 -1.041,0.898 -1.689,1.295 -0.858,0.517 -1.913,0.957 -3.236,1.355 -0.875,0.26 -1.879,0.439 -3.002,0.53 0.109,0.223 0.184,0.467 0.221,0.726 0.167,1.195 -0.572,2.332 -1.732,2.665 -1.23,0.351 -2.402,0.529 -3.483,0.529 -1.349,0 -2.594,-0.275 -3.698,-0.817 -1.484,-0.731 -2.829,-1.797 -4.01,-3.176 -2.195,-0.218 -4.364,-0.815 -6.465,-1.779 -2.369,-1.088 -4.628,-2.516 -6.719,-4.248 -2.066,-1.707 -3.969,-3.681 -5.657,-5.867 -0.186,-0.242 -0.361,-0.486 -0.532,-0.73 l -2.146,0 c 0.495,0.826 0.977,1.627 1.45,2.4 3.047,4.995 5.867,9.578 8.383,13.624 2.276,3.662 4.031,6.615 5.214,8.774 1.415,2.584 2.028,4.53 1.93,6.127 -0.062,1.028 -0.573,3.515 -3.966,4.316 -1.543,0.358 -3.711,0.531 -6.64,0.531 -1.337,0 -2.422,-1.084 -2.422,-2.421 0,-0.512 0.159,-0.985 0.428,-1.374 -0.237,-0.924 -0.695,-2.169 -1.365,-3.713 -0.775,-1.79 -1.781,-3.921 -2.987,-6.333 -1.173,-2.349 -2.51,-4.912 -3.977,-7.621 -1.444,-2.667 -2.923,-5.37 -4.435,-8.106 -1.017,-1.838 -1.996,-3.615 -2.942,-5.332 l -0.48,-0.872 -1.173,0 c 1.157,1.712 2.385,3.499 3.682,5.349 0.582,0.829 0.586,1.934 0.009,2.767 -0.595,0.862 -1.45,1.634 -2.54,2.296 -0.859,0.516 -1.914,0.959 -3.233,1.355 -1.351,0.406 -2.958,0.602 -4.911,0.602 -0.299,0 -0.586,-0.054 -0.85,-0.153 -1.341,0.926 -2.791,1.394 -4.33,1.394 -0.1,0 -0.2,-0.002 -0.3,-0.005 -2.156,-0.088 -4.304,-0.908 -6.386,-2.442 -1.875,-1.383 -3.715,-3.242 -5.465,-5.527 -1.697,-2.199 -3.245,-4.622 -4.6,-7.197 -1.341,-2.541 -2.482,-5.163 -3.391,-7.791 -0.919,-2.669 -1.521,-5.131 -1.789,-7.319 -0.293,-2.463 -0.125,-4.468 0.513,-6.137 0.842,-2.223 2.74,-3.5 5.203,-3.5 2.134,0 4.257,0.702 6.306,2.089 0.316,0.214 0.631,0.44 0.946,0.675 0.504,-1.166 1.757,-2.764 4.852,-2.764 1.668,0 3.351,0.375 5.001,1.117 1.255,0.564 2.489,1.287 3.676,2.151 0.23,-0.655 0.574,-1.236 1.028,-1.736 0.928,-1.019 2.271,-1.532 3.999,-1.532 1.668,0 3.353,0.375 5.005,1.115 1.522,0.688 3.003,1.607 4.402,2.735 0.866,0.691 1.714,1.457 2.533,2.281 0.593,-1.694 1.611,-3.102 3.036,-4.193 1.668,-1.285 3.986,-1.938 6.886,-1.938 1.773,0 3.567,0.364 5.33,1.083 1.632,0.669 3.255,1.566 4.825,2.67 0.473,0.333 0.942,0.683 1.406,1.045 0.116,-0.826 0.367,-1.578 0.755,-2.249 0.662,-1.157 2.141,-2.549 5.403,-2.549 1.337,0 2.422,1.085 2.422,2.422 0,0.531 -0.172,1.02 -0.461,1.42 0.049,0.164 0.117,0.364 0.206,0.604 0.3,0.797 0.757,1.791 1.355,2.948 0.628,1.211 1.334,2.514 2.1,3.875 1.022,1.586 2.13,3.196 3.312,4.806 -0.447,-0.942 -0.864,-1.879 -1.242,-2.802 -0.872,-2.11 -1.381,-4.056 -1.514,-5.783 -0.158,-2.081 0.304,-3.833 1.37,-5.21 1.166,-1.512 3.082,-2.28 5.691,-2.28 1.49,0 3.019,0.393 4.544,1.166 1.021,0.523 2.028,1.174 3.011,1.945 0.184,-0.593 0.471,-1.12 0.857,-1.579 0.869,-1.021 2.199,-1.532 3.96,-1.532 1.672,0 3.353,0.375 5.003,1.117 1.517,0.684 3.006,1.598 4.423,2.716 1.388,1.099 2.711,2.358 3.929,3.744 1.183,1.348 2.307,2.718 3.344,4.074 2.441,3.222 4.746,6.967 6.857,11.144 0.38,0.75 0.342,1.645 -0.098,2.36 -0.441,0.717 -1.221,1.153 -2.063,1.153 l -5.591,0 c 0.688,1.101 1.394,2.225 2.121,3.368 1.643,2.588 3.342,5.166 5.059,7.681 1.025,-0.161 2.054,-0.293 3.077,-0.401 0.6,-0.063 1.21,-0.094 1.808,-0.094 1.113,0 2.232,0.109 3.329,0.327 1.789,0.36 3.495,1.115 5.078,2.243 1.617,1.155 3.038,2.829 4.344,5.121 C 1.355,-2.101 1.037,-0.713 0,0 m -12.018,-8.465 c -0.516,0 -1.035,0.027 -1.557,0.082 -1.496,0.156 -2.978,0.369 -4.448,0.637 -2.005,-2.898 -4.002,-5.907 -5.984,-9.027 -1.983,-3.12 -3.811,-6.075 -5.481,-8.86 -1.676,-2.787 -3.113,-5.238 -4.313,-7.355 -1.207,-2.118 -2.029,-3.601 -2.475,-4.448 -0.756,-1.559 -1.26,-2.818 -1.506,-3.777 -0.246,-0.959 -0.053,-1.437 0.57,-1.437 0.936,0 1.981,0.435 3.141,1.304 1.161,0.868 2.316,1.961 3.475,3.277 1.161,1.313 2.22,2.75 3.178,4.311 0.959,1.561 1.729,3.031 2.307,4.414 0.582,1.38 0.87,2.585 0.87,3.609 0,1.026 -0.401,1.65 -1.205,1.874 l 6.954,0 c -2.051,-4.057 -4.256,-7.646 -6.619,-10.765 -1.024,-1.338 -2.105,-2.652 -3.24,-3.946 -1.137,-1.293 -2.343,-2.439 -3.611,-3.442 -1.272,-1.004 -2.578,-1.806 -3.915,-2.408 -1.335,-0.6 -2.673,-0.904 -4.01,-0.904 -1.024,0 -1.728,0.223 -2.108,0.669 -0.377,0.448 -0.557,1.081 -0.535,1.907 0.025,0.824 0.195,1.815 0.504,2.976 0.154,0.58 0.329,1.186 0.52,1.823 -0.169,-0.206 -0.318,-0.417 -0.489,-0.621 -1.092,-1.293 -2.205,-2.439 -3.34,-3.442 -1.139,-1.004 -2.298,-1.806 -3.477,-2.408 -1.182,-0.6 -2.332,-0.904 -3.447,-0.904 -1.827,0 -3.088,0.447 -3.775,1.339 -0.69,0.891 -0.983,2.072 -0.872,3.544 0.113,1.469 0.557,3.154 1.339,5.048 0.779,1.894 1.703,3.82 2.775,5.783 2.537,4.638 6.038,9.897 10.499,15.782 -0.757,0 -1.896,-0.648 -3.414,-1.941 -1.511,-1.293 -3.207,-2.963 -5.081,-5.014 -1.868,-2.052 -3.798,-4.346 -5.785,-6.887 -1.981,-2.54 -3.775,-5.062 -5.379,-7.558 -0.804,-1.426 -1.528,-2.763 -2.174,-4.011 -0.646,-1.248 -1.137,-2.32 -1.472,-3.209 -0.335,-0.892 -0.498,-1.594 -0.498,-2.105 0,-0.515 0.198,-0.771 0.598,-0.771 -1.69,0 -2.796,0.447 -3.305,1.339 -0.515,0.891 -0.639,2.072 -0.372,3.544 0.253,1.379 0.781,2.958 1.54,4.706 -0.866,-0.953 -1.761,-1.903 -2.711,-2.835 -1.314,-1.293 -2.684,-2.439 -4.108,-3.442 -1.43,-1.004 -2.878,-1.806 -4.348,-2.408 -1.472,-0.6 -2.944,-0.904 -4.415,-0.904 -2.362,0 -4.168,0.48 -5.413,1.439 -1.251,0.958 -2.059,2.228 -2.441,3.811 -0.32,1.333 -0.338,2.838 -0.087,4.49 -0.795,-1.004 -1.59,-2.007 -2.451,-2.986 -1.137,-1.293 -2.33,-2.439 -3.582,-3.442 -1.246,-1.004 -2.538,-1.806 -3.875,-2.408 -1.339,-0.6 -2.676,-0.904 -4.013,-0.904 -1.024,0 -1.757,0.245 -2.205,0.737 -0.444,0.489 -0.691,1.147 -0.739,1.973 -0.04,0.823 0.113,1.803 0.47,2.94 0.127,0.408 0.289,0.843 0.444,1.275 l -0.139,-0.171 c -1.138,-1.293 -2.343,-2.439 -3.613,-3.442 -1.269,-1.004 -2.576,-1.806 -3.913,-2.408 -1.337,-0.6 -2.672,-0.904 -4.009,-0.904 -1.565,0 -2.473,0.547 -2.744,1.639 -0.267,1.093 -0.134,2.529 0.401,4.313 -1.56,-1.737 -3.164,-3.165 -4.812,-4.279 -1.649,-1.115 -3.301,-1.673 -4.949,-1.673 -1.47,0 -2.45,0.647 -2.941,1.943 -0.494,1.289 -0.612,2.95 -0.37,4.979 0.248,2.028 0.804,4.301 1.672,6.82 0.871,2.518 1.952,5.003 3.246,7.455 1.29,2.451 2.749,4.738 4.379,6.852 1.624,2.119 3.287,3.802 4.981,5.05 1.693,1.248 3.376,1.905 5.046,1.972 l 0.202,0.004 c 1.592,0 3.077,-0.77 4.446,-2.311 0.581,-0.715 0.937,-1.67 1.068,-2.874 0.491,1.204 0.739,2.159 0.739,2.874 0,0.713 -0.36,1.07 -1.073,1.07 1.693,0 3.099,-0.166 4.215,-0.5 1.113,-0.335 2.005,-0.705 2.672,-1.107 0.802,-0.487 1.405,-1.024 1.805,-1.602 -3.653,-5.214 -6.753,-9.873 -9.291,-13.976 -1.072,-1.739 -2.098,-3.454 -3.076,-5.146 -0.979,-1.696 -1.772,-3.188 -2.375,-4.481 -0.602,-1.294 -0.969,-2.341 -1.102,-3.142 -0.135,-0.802 0.066,-1.204 0.599,-1.204 0.937,0 1.986,0.435 3.147,1.304 1.155,0.868 2.305,1.961 3.44,3.277 1.137,1.313 2.198,2.75 3.177,4.311 0.98,1.561 1.748,3.031 2.308,4.414 0.557,1.38 0.833,2.585 0.833,3.609 0,1.026 -0.4,1.65 -1.2,1.874 l 4.444,0 c 1.304,2.365 2.669,4.846 4.113,7.455 1.514,2.742 2.997,5.451 4.443,8.123 1.448,2.674 2.789,5.238 4.013,7.69 1.226,2.45 2.241,4.601 3.044,6.453 0.802,1.848 1.326,3.318 1.57,4.413 0.247,1.09 0.101,1.638 -0.433,1.638 2.718,0 4.746,-0.157 6.083,-0.468 1.335,-0.315 2.04,-1.017 2.105,-2.107 0.067,-1.093 -0.477,-2.698 -1.636,-4.813 -1.16,-2.118 -2.876,-5.005 -5.148,-8.66 -2.272,-3.657 -5.074,-8.203 -8.392,-13.641 -3.32,-5.437 -7.097,-11.99 -11.336,-19.658 -0.844,-1.514 -1.37,-2.764 -1.57,-3.742 -0.198,-0.983 0.011,-1.472 0.635,-1.472 0.935,0 1.987,0.435 3.146,1.304 1.157,0.868 2.305,1.961 3.44,3.277 1.139,1.313 2.199,2.75 3.176,4.311 0.981,1.561 1.748,3.031 2.311,4.414 0.556,1.38 0.833,2.585 0.833,3.609 0,1.026 -0.4,1.65 -1.204,1.874 l 4.613,0 c 0.388,0.557 0.742,1.119 1.168,1.672 1.583,2.05 3.346,3.878 5.287,5.481 1.936,1.605 3.999,2.909 6.183,3.911 2.182,1.003 4.414,1.55 6.686,1.64 1.115,1.515 2.394,2.628 3.846,3.343 0.771,0.381 1.65,0.57 2.63,0.57 0.859,0 1.798,-0.146 2.817,-0.437 -0.535,0 -1.105,-0.622 -1.707,-1.868 -0.598,-1.246 -1.337,-2.813 -2.205,-4.701 -0.867,-1.889 -1.915,-3.957 -3.141,-6.204 -1.225,-2.245 -2.742,-4.333 -4.548,-6.267 -1.803,-1.936 -3.921,-3.591 -6.353,-4.97 -2.427,-1.381 -5.292,-2.156 -8.593,-2.334 l -0.534,0 c -0.532,-1.336 -0.936,-2.585 -1.201,-3.744 -0.269,-1.159 -0.326,-2.172 -0.169,-3.044 0.158,-0.868 0.544,-1.546 1.171,-2.039 0.624,-0.49 1.514,-0.735 2.673,-0.735 1.206,0 2.552,0.455 4.046,1.366 1.495,0.913 2.987,2.065 4.481,3.466 1.49,1.401 2.885,2.909 4.18,4.533 1.29,1.619 2.34,3.166 3.14,4.628 0.804,1.467 1.281,2.733 1.439,3.801 0.157,1.066 -0.165,1.708 -0.969,1.932 l 4.276,0 c 0.079,0.144 0.157,0.289 0.237,0.433 1.137,2.028 2.096,3.88 2.874,5.55 0.779,1.674 1.317,3.109 1.605,4.314 0.293,1.202 0.146,2.028 -0.433,2.474 1.692,0 3.098,-0.169 4.213,-0.502 1.114,-0.335 2.005,-0.702 2.673,-1.105 0.802,-0.489 1.404,-1.024 1.805,-1.602 -0.85,-1.206 -1.731,-2.498 -2.642,-3.881 -0.915,-1.379 -1.861,-2.805 -2.838,-4.278 1.201,1.56 2.438,3.041 3.709,4.448 1.27,1.404 2.514,2.617 3.744,3.643 1.227,1.025 2.405,1.838 3.544,2.44 1.059,0.562 2.03,0.841 2.918,0.841 l 0.191,-0.004 c 0.803,-0.044 1.525,-0.211 2.171,-0.502 0.649,-0.289 1.208,-0.624 1.673,-1.003 0.47,-0.38 0.846,-0.793 1.139,-1.235 0.288,-0.449 0.499,-0.851 0.633,-1.206 -0.446,0 -1.271,-0.689 -2.474,-2.072 -1.203,-1.381 -2.554,-3.12 -4.044,-5.214 -1.494,-2.098 -3.011,-4.359 -4.546,-6.788 -1.538,-2.43 -2.857,-4.692 -3.946,-6.789 -1.095,-2.094 -1.829,-3.831 -2.207,-5.212 -0.378,-1.383 -0.166,-2.074 0.635,-2.074 0.804,0 1.759,0.435 2.874,1.304 1.114,0.87 2.243,1.971 3.375,3.309 1.139,1.338 2.21,2.809 3.213,4.412 1.002,1.607 1.803,3.122 2.408,4.548 0.599,1.427 0.921,2.674 0.968,3.746 0.046,1.07 -0.334,1.737 -1.137,2.005 l 4.594,0 c 0.122,0.205 0.229,0.393 0.353,0.6 1.604,2.674 3.274,5.429 5.017,8.26 1.738,2.83 3.299,5.448 4.681,7.855 -1.786,-0.135 -3.3,-0.668 -4.548,-1.603 0.577,0.757 1.337,1.379 2.272,1.87 0.935,0.492 1.983,0.914 3.144,1.27 1.157,2.051 2.052,3.746 2.672,5.083 0.628,1.337 0.804,2.118 0.535,2.34 0.802,0.535 1.794,1.069 2.976,1.604 1.179,0.535 2.409,1.026 3.681,1.47 1.268,0.448 2.538,0.813 3.809,1.105 1.274,0.289 2.418,0.434 3.442,0.434 -1.16,-0.893 -2.514,-2.285 -4.079,-4.177 -1.56,-1.895 -3.23,-4.091 -5.013,-6.587 1.606,0.133 3.165,0.245 4.679,0.333 1.517,0.091 2.92,0.202 4.213,0.336 1.296,0.133 2.409,0.324 3.344,0.568 0.935,0.244 1.604,0.611 2.008,1.104 -1.118,-1.965 -2.332,-3.411 -3.645,-4.348 -1.314,-0.937 -2.697,-1.548 -4.145,-1.839 -0.944,-0.187 -1.895,-0.282 -2.856,-0.282 m -19.679,-25.722 c 1.185,2.09 2.626,4.548 4.285,7.306 0.2,0.335 0.404,0.673 0.609,1.013 l 0.133,-0.083 c -0.033,-0.506 -0.187,-1.301 -0.673,-2.453 -0.528,-1.261 -1.246,-2.632 -2.138,-4.086 -0.882,-1.437 -1.868,-2.774 -2.93,-3.975 -0.459,-0.524 -0.917,-1.006 -1.372,-1.446 0.38,0.698 1.026,1.865 2.086,3.724 m -73.881,8.103 c -0.049,-0.515 -0.209,-1.283 -0.642,-2.354 -0.504,-1.247 -1.215,-2.604 -2.112,-4.032 -0.906,-1.442 -1.899,-2.792 -2.958,-4.015 -0.458,-0.533 -0.922,-1.026 -1.386,-1.479 0.453,0.884 0.991,1.865 1.606,2.929 0.952,1.646 1.976,3.358 3.04,5.088 0.76,1.228 1.579,2.516 2.452,3.863 m 6.637,-11.785 c 2.427,4.38 4.708,8.403 6.829,12.038 l 0.184,-0.12 c -0.031,-0.513 -0.18,-1.319 -0.651,-2.487 -0.506,-1.248 -1.219,-2.605 -2.114,-4.032 -0.904,-1.444 -1.898,-2.792 -2.956,-4.013 -0.43,-0.498 -0.861,-0.961 -1.292,-1.386 m 29.159,7.148 c -0.45,-0.648 -0.944,-1.314 -1.485,-1.993 -1.202,-1.506 -2.528,-2.945 -3.946,-4.277 -1.355,-1.271 -2.73,-2.337 -4.084,-3.163 -1.084,-0.662 -2.047,-1.012 -2.783,-1.012 -0.874,0 -1.15,0.197 -1.179,0.219 -0.071,0.058 -0.209,0.165 -0.284,0.569 -0.094,0.535 -0.047,1.23 0.147,2.061 0.14,0.61 0.326,1.263 0.559,1.95 3.242,0.301 6.133,1.163 8.607,2.571 1.599,0.906 3.087,1.936 4.448,3.075 m 29.322,4.631 c -0.083,-0.718 -0.338,-1.588 -0.757,-2.585 -0.553,-1.304 -1.304,-2.721 -2.228,-4.202 -0.935,-1.496 -1.947,-2.884 -3.004,-4.124 -0.491,-0.583 -0.984,-1.118 -1.477,-1.603 0.237,0.498 0.5,1.026 0.79,1.583 1.035,1.99 2.328,4.215 3.847,6.616 0.937,1.485 1.883,2.927 2.829,4.315 m 5.542,7.392 c 0.716,0.824 1.12,1.186 1.3,1.33 l 0.177,0.056 c -0.848,-1.395 -1.681,-2.771 -2.496,-4.128 l -1.199,0 c 0.788,1.034 1.53,1.95 2.218,2.742"
             style="fill:#231f20;fill-opacity:1;fill-rule:nonzero;stroke:none"
             id="path186"
             inkscape:connector-curvature="0" />
        </g>
        <g
           id="g188"
           transform="translate(562.4229,861.4078)">
          <path
             d="m 0,0 c 0.087,1.292 -0.269,2.05 -1.07,2.274 l 4.208,0 C 3.36,3.166 3.438,3.935 3.372,4.581 3.303,5.227 3.069,5.661 2.669,5.883 2.331,6.053 1.971,6.138 1.59,6.138 0.763,6.138 -0.169,5.742 -1.205,4.948 -2.717,3.789 -4.254,2.174 -5.813,0.102 c -1.555,-2.074 -3.06,-4.381 -4.506,-6.92 -1.447,-2.544 -2.619,-4.94 -3.507,-7.188 -0.891,-2.254 -1.436,-4.135 -1.636,-5.651 -0.201,-1.517 0.166,-2.274 1.103,-2.274 0.936,0 2.025,0.57 3.273,1.707 1.246,1.133 2.493,2.563 3.739,4.278 1.247,1.716 2.424,3.588 3.536,5.616 1.114,2.027 2.007,3.934 2.675,5.716 C -0.469,-2.831 -0.093,-1.293 0,0 m -12.769,-18.483 c 0.26,1.035 0.658,2.235 1.192,3.585 0.836,2.116 1.966,4.432 3.36,6.881 1.381,2.425 2.84,4.668 4.337,6.665 0.456,0.604 0.909,1.168 1.36,1.687 L -2.408,0.256 -2.413,0.164 c -0.077,-1.054 -0.409,-2.378 -0.989,-3.928 -0.623,-1.665 -1.473,-3.482 -2.527,-5.398 -1.063,-1.939 -2.199,-3.74 -3.373,-5.359 -1.152,-1.585 -2.3,-2.9 -3.41,-3.91 l -0.057,-0.052 z"
             style="fill:#231f20;fill-opacity:1;fill-rule:nonzero;stroke:none"
             id="path190"
             inkscape:connector-curvature="0" />
        </g>
        <g
           id="g192"
           transform="translate(599.1807,852.1824)">
          <path
             d="M 0,0 C 1.448,1.337 2.707,2.964 3.775,4.881 4.846,6.797 5.816,8.836 6.688,10.997 7.553,13.16 8.5,15.154 9.529,16.983 8.323,16.313 6.999,15.289 5.549,13.908 4.097,12.524 2.649,10.941 1.201,9.16 -0.248,7.377 -1.63,5.483 -2.944,3.477 -4.261,1.472 -5.363,-0.469 -6.255,-2.341 c 0.177,0.043 0.47,0.067 0.874,0.067 C -3.244,-2.096 -1.448,-1.339 0,0"
             style="fill:#231f20;fill-opacity:1;fill-rule:nonzero;stroke:none"
             id="path194"
             inkscape:connector-curvature="0" />
        </g>
        <g
           id="g196"
           transform="translate(751.1811,985.0394)" />
        <g
           id="g200"
           transform="translate(812.126,985.0394)">
          <path
             d="M 0,0 -33.165,0"
             style="fill:none;stroke:#ffffff;stroke-width:1;stroke-linecap:butt;stroke-linejoin:miter;stroke-miterlimit:4;stroke-opacity:1;stroke-dasharray:none"
             id="path202"
             inkscape:connector-curvature="0" />
        </g>
        <g
           id="g204"
           transform="translate(883.1339,985.0394)" />
        <g
           id="g208"
           transform="translate(938.4094,985.0394)">
          <path
             d="M 0,0 -25.654,0"
             style="fill:none;stroke:#ffffff;stroke-width:1;stroke-linecap:butt;stroke-linejoin:miter;stroke-miterlimit:4;stroke-opacity:1;stroke-dasharray:none"
             id="path210"
             inkscape:connector-curvature="0" />
        </g>
        <g
           id="g212"
           transform="translate(986.4567,985.0394)">
          <path
             d="M 0,0 -19.843,0"
             style="fill:none;stroke:#ffffff;stroke-width:1;stroke-linecap:butt;stroke-linejoin:miter;stroke-miterlimit:4;stroke-opacity:1;stroke-dasharray:none"
             id="path214"
             inkscape:connector-curvature="0" />
        </g>
        <g
           id="g216"
           transform="translate(1053.0709,985.0394)">
          <path
             d="M 0,0 -37.701,0"
             style="fill:none;stroke:#ffffff;stroke-width:1;stroke-linecap:butt;stroke-linejoin:miter;stroke-miterlimit:4;stroke-opacity:1;stroke-dasharray:none"
             id="path218"
             inkscape:connector-curvature="0" />
        </g>
        <g
           id="g220"
           transform="translate(210.3543,172.0041)" />
        <g
           id="g224"
           transform="translate(666.7323,172.0041)" />
      </g>
    </g>
  </g>
</svg>
