<?xml version="1.0" encoding="UTF-8" standalone="no"?>
<!-- Created with Inkscape (http://www.inkscape.org/) -->

<svg
   xmlns:dc="http://purl.org/dc/elements/1.1/"
   xmlns:cc="http://creativecommons.org/ns#"
   xmlns:rdf="http://www.w3.org/1999/02/22-rdf-syntax-ns#"
   xmlns:svg="http://www.w3.org/2000/svg"
   xmlns="http://www.w3.org/2000/svg"
   xmlns:sodipodi="http://sodipodi.sourceforge.net/DTD/sodipodi-0.dtd"
   xmlns:inkscape="http://www.inkscape.org/namespaces/inkscape"
   id="svg3169"
   version="1.1"
   inkscape:version="0.48.5 r10040"
   width="470.9625"
   height="184.2375"
   xml:space="preserve"
   sodipodi:docname="Talentstix_logo_GWB_1.eps"><metadata
     id="metadata3175"><rdf:RDF><cc:Work
         rdf:about=""><dc:format>image/svg+xml</dc:format><dc:type
           rdf:resource="http://purl.org/dc/dcmitype/StillImage" /><dc:title></dc:title></cc:Work></rdf:RDF></metadata><defs
     id="defs3173" /><sodipodi:namedview
     pagecolor="#ffffff"
     bordercolor="#666666"
     borderopacity="1"
     objecttolerance="10"
     gridtolerance="10"
     guidetolerance="10"
     inkscape:pageopacity="0"
     inkscape:pageshadow="2"
     inkscape:window-width="640"
     inkscape:window-height="480"
     id="namedview3171"
     showgrid="false"
     inkscape:zoom="1.1023967"
     inkscape:cx="235.48125"
     inkscape:cy="92.118752"
     inkscape:window-x="424"
     inkscape:window-y="223"
     inkscape:window-maximized="0"
     inkscape:current-layer="g3177" /><g
     id="g3177"
     inkscape:groupmode="layer"
     inkscape:label="ink_ext_XXXXXX"
     transform="matrix(1.25,0,0,-1.25,0,184.2375)"><g
       id="g3179"
       transform="scale(0.1,0.1)"><path
         d="m 996.52,1473.93 -985.5981,0 0,-381.84 L 565.879,389.109 0,389.109 0,3.16016 l 985.621,0 0,385.94884 -548.16,698.871 559.059,0 0,385.95"
         style="fill:#7ecc28;fill-opacity:1;fill-rule:nonzero;stroke:none"
         id="path3181" /><path
         d="m 3767.69,1473.93 -395.38,0 -123.62,-283.5 -123.62,283.5 -395.4,0 L 3050.99,736.938 2729.67,0 3125.07,0 3248.69,283.512 3372.31,0 l 395.38,0 -321.3,736.938 321.3,736.992"
         style="fill:#7ecc28;fill-opacity:1;fill-rule:nonzero;stroke:none"
         id="path3183" /><path
         d="m 2249.35,6.67969 376.957,0 0,1467.25001 -376.957,0 0,-1467.25001 z"
         style="fill:#7ecc28;fill-opacity:1;fill-rule:nonzero;stroke:none"
         id="path3185" /><path
         d="m 1106.08,1473.93 0,-376.99 322.1,0 0,-1090.29156 377,0 0,1090.29156 322.12,0 0,376.99 -1021.22,0"
         style="fill:#7ecc28;fill-opacity:1;fill-rule:nonzero;stroke:none"
         id="path3187" /><path
         d="m 1848.34,518.363 c -5.57,0 -11.01,2.465 -14.55,6.899 -4.41,5.519 -5.44,13.035 -2.41,19.41 13.97,29.359 31.38,59.941 51.7,90.851 20.13,30.774 41.75,60.438 64.23,88.133 22.54,27.699 45.37,52.621 67.88,74.082 23.48,22.375 44.55,38.594 64.43,49.625 2.79,1.551 5.88,2.328 8.95,2.328 4.8,0 9.54,-1.882 13.09,-5.457 5.82,-5.851 7.04,-14.867 2.99,-22.074 -15.19,-26.945 -29.39,-56.887 -42.25,-88.992 -13.58,-33.711 -28.86,-65.789 -45.41,-95.371 -17.11,-30.719 -37.68,-57.305 -61.1,-78.93 -25.04,-23.148 -56.34,-36.429 -93.02,-39.476 -8.18,-0.086 -10.34,-0.559 -10.34,-0.559 -1.45,-0.301 -2.83,-0.469 -4.19,-0.469"
         style="fill:#7ecc28;fill-opacity:1;fill-rule:nonzero;stroke:none"
         id="path3189" /><path
         d="m 2088.57,868.129 c -6.13,0 -12.28,-1.492 -17.91,-4.629 -21.27,-11.812 -43.58,-28.945 -68.2,-52.398 -23.07,-22.016 -46.43,-47.493 -69.45,-75.801 -22.9,-28.192 -44.88,-58.36 -65.4,-89.688 -20.73,-31.578 -38.56,-62.875 -52.9,-93.011 -6.13,-12.868 -4.29,-28.141 4.71,-39.204 7.13,-8.707 17.69,-13.554 28.62,-13.554 2.94,0 5.93,0.332 8.87,1.078 0.05,-0.055 0.83,-0.055 2,-0.055 0.71,0 1.55,0 2.44,0 1.02,0 2.05,0.028 3.07,0.113 40.86,3.411 75.85,18.325 104,44.356 24.83,22.93 46.63,51.039 64.71,83.508 16.91,30.219 32.51,62.988 46.35,97.367 12.58,31.441 26.45,60.656 41.25,86.914 8.1,14.391 5.66,32.41 -5.98,44.109 -7.1,7.157 -16.59,10.895 -26.18,10.895 l 0,0 z m 0,-36.899 c -15.69,-27.867 -30.1,-58.246 -43.31,-91.214 -13.28,-32.938 -28.05,-64.016 -44.38,-93.211 -16.27,-29.219 -35.46,-54.004 -57.53,-74.379 -22.07,-20.41 -49.43,-31.942 -82,-34.656 -6.16,0 -10.62,-0.364 -13.31,-1.028 13.58,28.531 30.39,58.11 50.46,88.664 20.02,30.578 41.08,59.438 63.15,86.61 22.07,27.14 44.14,51.261 66.26,72.359 22.1,21.043 42.28,36.648 60.66,46.855"
         style="fill:#231f20;fill-opacity:1;fill-rule:nonzero;stroke:none"
         id="path3191" /><path
         d="m 1613.21,1157.79 c -25.48,-7.12 -56.75,-11.56 -93.7,-13.22 -23.43,-1.09 -48.38,-1.61 -74.89,-1.61 -15.44,0 -31.41,0.17 -47.93,0.56 -44.86,1.05 -90.38,1.68 -136.57,2.07 -4.71,0.03 -9.4,0.06 -14.08,0.06 -41.26,0 -81.57,-1.22 -120.91,-3.63 -43.83,-2.72 -83.2,-9.01 -118.25,-18.86 -34.982,-9.86 -63.65,-24.12 -86.052,-42.8 -22.426,-18.68 -35.012,-44 -37.703,-75.88 4.078,23.06 14.441,40.23 31.051,51.42 16.637,11.21 37.539,18.52 62.715,21.91 13.914,1.88 28.889,2.8 44.909,2.8 12.87,0 26.42,-0.59 40.65,-1.81 31.91,-2.71 65.59,-6.45 100.88,-11.19 l -1.02,0 c 8.87,-6.77 9.2,-22.24 1.02,-46.36 -8.17,-24.094 -21.7,-53.672 -40.78,-88.633 -18.99,-34.992 -41.42,-73.887 -67.2,-116.668 -25.84,-42.801 -51.65,-85.969 -77.491,-129.414 -25.808,-43.445 -49.543,-85.777 -71.277,-126.84 -21.769,-41.14 -38.035,-77.625 -48.906,-109.566 -10.922,-31.938 -14.5,-57.547 -10.758,-76.93 3.77,-19.328 18.242,-29.027 43.359,-29.027 -6.82,0 -8.148,6.988 -4.129,20.879 4.129,13.879 12.254,32.738 24.477,56.558 12.227,23.762 27.672,51.282 46.355,82.532 18.688,31.214 39.094,64.343 61.16,99.359 22.1,34.961 45.14,70.781 69.31,107.492 24.07,36.68 47.52,71.996 70.31,105.985 22.71,33.933 44.31,65.679 64.65,95.265 20.38,29.551 37.71,54.832 51.98,75.93 -2.05,10.176 -5.43,19.658 -10.17,28.508 -4.74,7.48 -11.25,15.27 -19.35,23.42 -8.18,8.15 -19.38,14.94 -33.63,20.41 33.27,-5.47 66.73,-10.37 100.36,-14.78 33.63,-4.41 66.24,-7.15 97.78,-8.15 6.85,-0.22 13.65,-0.33 20.36,-0.33 24.22,0 47.52,1.46 69.86,4.41 28.55,3.71 54,11.36 76.44,22.93 22.43,11.5 41.08,27.64 56.03,48.37 14.91,20.68 25.11,47.36 30.55,79.96 -7.46,-16.28 -23.96,-27.97 -49.41,-35.13"
         style="fill:#ffffff;fill-opacity:1;fill-rule:nonzero;stroke:none"
         id="path3193" /><path
         d="m 1576.04,1064.59 c -22.44,-11.57 -47.89,-19.22 -76.44,-22.93 -22.34,-2.95 -45.64,-4.41 -69.86,-4.41 -6.71,0 -13.51,0.11 -20.36,0.33 -31.54,1 -64.15,3.74 -97.78,8.15 -33.63,4.41 -67.09,9.31 -100.36,14.78 14.25,-5.47 25.45,-12.26 33.63,-20.41 8.1,-8.15 14.61,-15.94 19.35,-23.42 4.74,-8.85 8.12,-18.332 10.17,-28.508 -14.27,-21.098 -31.6,-46.379 -51.98,-75.93 -20.34,-29.586 -41.94,-61.332 -64.65,-95.265 -22.79,-33.989 -46.24,-69.305 -70.31,-105.985 -24.17,-36.711 -47.21,-72.531 -69.31,-107.492 -22.066,-35.016 -42.472,-68.145 -61.16,-99.359 -18.683,-31.25 -34.128,-58.77 -46.355,-82.532 -12.223,-23.82 -20.348,-42.679 -24.477,-56.558 -4.019,-13.891 -2.691,-20.879 4.129,-20.879 -25.117,0 -39.589,9.699 -43.359,29.027 -3.742,19.383 -0.164,44.992 10.758,76.93 10.871,31.941 27.137,68.426 48.906,109.566 21.734,41.063 45.469,83.395 71.277,126.84 25.841,43.445 51.651,86.613 77.491,129.414 25.78,42.781 48.21,81.676 67.2,116.668 19.08,34.961 32.61,64.539 40.78,88.633 8.18,24.12 7.85,39.59 -1.02,46.36 l 1.02,0 c -35.29,4.74 -68.97,8.48 -100.88,11.19 -14.23,1.22 -27.78,1.81 -40.65,1.81 -16.02,0 -30.995,-0.92 -44.909,-2.8 -25.176,-3.39 -46.078,-10.7 -62.715,-21.91 -16.61,-11.19 -26.973,-28.36 -31.051,-51.42 2.691,31.88 15.277,57.2 37.703,75.88 22.402,18.68 51.07,32.94 86.052,42.8 35.05,9.85 74.42,16.14 118.25,18.86 39.34,2.41 79.65,3.63 120.91,3.63 4.68,0 9.37,-0.03 14.08,-0.06 46.19,-0.39 91.71,-1.02 136.57,-2.07 16.52,-0.39 32.49,-0.56 47.93,-0.56 26.51,0 51.46,0.52 74.89,1.61 36.95,1.66 68.22,6.1 93.7,13.22 25.45,7.16 41.95,18.85 49.41,35.13 -5.44,-32.6 -15.64,-59.28 -30.55,-79.96 -14.95,-20.73 -33.6,-36.87 -56.03,-48.37 z m 97.39,163.62 c -3.58,1.08 -7.24,1.61 -10.81,1.61 -14.11,0 -27.4,-8.12 -33.55,-21.52 -2.58,-5.62 -12,-11.09 -25.84,-14.96 -22.73,-6.38 -51.48,-10.38 -85.39,-11.9 -22.98,-1.05 -47.6,-1.58 -73.22,-1.58 -15.16,0 -30.86,0.16 -47.1,0.55 -41.72,0.98 -86.58,1.67 -137.1,2.08 l -14.38,0.06 c -41.81,0 -83.26,-1.25 -123.15,-3.69 -46.17,-2.88 -88.55,-9.65 -125.988,-20.15 -39.89,-11.26 -73.433,-28.09 -99.718,-50.02 -30.192,-25.15 -47.301,-59.16 -50.821,-101.11 -1.668,-19.654 12.422,-37.146 31.996,-39.701 1.606,-0.219 3.211,-0.301 4.825,-0.301 17.629,0 33.125,12.641 36.289,30.469 3.023,17.213 10.199,23.783 15.332,27.253 11.836,7.96 27.636,13.33 46.992,15.94 12.258,1.64 25.703,2.47 40.003,2.47 11.75,0 24.4,-0.56 37.51,-1.66 22.21,-1.92 45.52,-4.33 69.62,-7.24 -0.17,-0.56 -0.34,-1.11 -0.56,-1.72 -7.59,-22.37 -20.46,-50.238 -38.2,-82.789 C 1071.68,916.258 1049.36,877.5 1023.74,835 997.875,792.168 972.012,748.914 946.145,705.391 920.664,662.5 896.379,619.305 873.977,576.973 851.438,534.359 834.188,495.684 822.742,462.031 c -13.14,-38.429 -17.078,-69.781 -12.058,-95.82 7.207,-36.93 36.953,-58.941 79.593,-58.941 20.375,0 36.903,16.519 36.903,36.902 0,5.816 -1.36,11.34 -3.742,16.219 3.105,8.808 9.007,22.898 20.015,44.359 11.922,23.172 27.145,50.23 45.192,80.453 18.215,30.414 38.645,63.602 60.715,98.613 23.56,37.293 46.1,72.254 68.92,106.883 24.01,36.621 47.41,71.828 70.14,105.735 22.62,33.824 44.14,65.429 64.41,94.875 20.43,29.632 37.81,55.004 52.15,76.183 5.54,8.207 7.54,18.27 5.6,27.977 -0.95,4.631 -2.08,9.171 -3.44,13.601 34.82,-4.54 68.84,-7.37 101.08,-8.36 7.21,-0.25 14.39,-0.39 21.52,-0.39 25.61,0 50.73,1.61 74.65,4.74 32.58,4.24 62.39,13.23 88.56,26.73 27.47,14.08 50.7,34.15 69.06,59.6 18.21,25.26 30.66,57.36 37.01,95.45 3.05,18.25 -7.9,35.94 -25.59,41.37"
         style="fill:#231f20;fill-opacity:1;fill-rule:nonzero;stroke:none"
         id="path3195" /><path
         d="m 1271.38,470.012 c -19.03,-26.141 -38.04,-47.942 -57.06,-65.211 -19.05,-17.332 -35.66,-26 -49.94,-26 -14.3,0 -19.9,11.531 -16.82,34.648 3.05,23.102 11.37,51.762 24.95,86.117 13.55,34.266 31.44,70.782 53.51,109.536 22.07,38.707 45.02,73.855 68.76,105.464 23.78,31.575 47.24,56.196 70.3,73.856 15.8,12.09 30.03,18.129 42.64,18.129 5.82,0 11.31,-1.297 16.47,-3.879 6.1,-3.379 9.68,-10.008 10.73,-19.852 1,-9.836 -0.19,-21.566 -3.58,-35.148 l -64.21,0 c 12.23,-3.414 17.66,-14.973 16.33,-34.66 -1.41,-19.711 -7.15,-43.141 -17.33,-70.309 -10.2,-27.168 -23.81,-56.223 -40.8,-87.109 -16.97,-30.91 -34.94,-59.438 -53.95,-85.582 z m 627.12,155.394 c 20.02,30.578 41.08,59.438 63.15,86.61 22.07,27.14 44.14,51.261 66.26,72.359 22.1,21.043 42.28,36.648 60.66,46.855 -15.69,-27.867 -30.1,-58.246 -43.31,-91.214 -13.28,-32.938 -28.05,-64.016 -44.38,-93.211 -16.27,-29.219 -35.46,-54.004 -57.53,-74.379 -22.07,-20.41 -49.43,-31.942 -82,-34.656 -6.16,0 -10.62,-0.364 -13.31,-1.028 13.58,28.531 30.39,58.11 50.46,88.664 z m 1207,378.044 c -6.16,-7.512 -16.36,-13.114 -30.62,-16.825 -14.25,-3.715 -31.21,-6.633 -50.95,-8.652 -19.71,-2.051 -41.09,-3.746 -64.21,-5.125 -23.07,-1.336 -46.83,-3.055 -71.3,-5.078 27.17,38.03 52.62,71.5 76.4,100.39 23.84,28.83 44.47,50.04 62.16,63.66 -15.61,0 -33.04,-2.23 -52.46,-6.63 -19.37,-4.44 -38.73,-10.01 -58.05,-16.83 -19.38,-6.76 -38.12,-14.25 -56.09,-22.4 -18.02,-8.15 -33.12,-16.3 -45.35,-24.45 4.1,-3.38 1.42,-15.28 -8.15,-35.65 -9.46,-20.39 -23.1,-46.223 -40.73,-77.465 -17.68,-5.438 -33.66,-11.868 -47.91,-19.36 -14.25,-7.484 -25.84,-16.961 -34.63,-28.492 19.03,14.246 42.09,22.371 69.32,24.422 -21.07,-36.68 -44.86,-76.578 -71.34,-119.711 -26.56,-43.141 -52.01,-85.117 -76.46,-125.871 -1.89,-3.156 -3.52,-6.016 -5.38,-9.149 l -70,0 c 12.22,-4.078 18.01,-14.25 17.32,-30.55 -0.71,-16.329 -5.62,-35.348 -14.75,-57.086 -9.22,-21.735 -21.43,-44.828 -36.7,-69.313 -15.28,-24.422 -31.61,-46.855 -48.96,-67.226 -17.25,-20.411 -34.46,-37.18 -51.44,-50.43 -16.99,-13.25 -31.54,-19.879 -43.79,-19.879 -12.2,0 -15.44,10.531 -9.68,31.602 5.77,21.046 16.94,47.519 33.63,79.429 16.6,31.969 36.7,66.43 60.14,103.469 23.4,37.012 46.51,71.473 69.27,103.441 22.71,31.911 43.31,58.414 61.64,79.457 18.33,21.071 30.9,31.579 37.7,31.579 -2.05,5.406 -5.27,11.531 -9.65,18.378 -4.46,6.739 -10.2,13.032 -17.35,18.825 -7.1,5.769 -15.62,10.867 -25.51,15.277 -9.84,4.434 -20.85,6.988 -33.08,7.652 -0.96,0.051 -1.94,0.051 -2.91,0.051 -13.52,0 -28.33,-4.238 -44.47,-12.805 -17.35,-9.175 -35.31,-21.57 -54,-37.179 -18.74,-15.633 -37.71,-34.125 -57.05,-55.531 -19.39,-21.43 -38.23,-44 -56.54,-67.786 14.89,22.457 29.31,44.192 43.26,65.207 13.88,21.071 27.3,40.758 40.25,59.133 -6.1,8.821 -15.27,16.969 -27.5,24.426 -10.18,6.129 -23.77,11.73 -40.73,16.832 -16.99,5.074 -38.43,7.652 -64.21,7.652 8.82,-6.793 11.06,-19.382 6.6,-37.707 -4.38,-18.355 -12.59,-40.222 -24.45,-65.73 -11.87,-25.449 -26.48,-53.68 -43.81,-84.59 -1.22,-2.187 -2.41,-4.406 -3.6,-6.598 l -65.18,0 c 12.26,-3.41 17.16,-13.199 14.77,-29.445 -2.41,-16.273 -9.67,-35.57 -21.93,-57.914 -12.2,-22.289 -28.19,-45.855 -47.85,-70.527 -19.74,-24.762 -41,-47.746 -63.71,-69.086 -22.76,-21.352 -45.49,-38.903 -68.28,-52.821 -22.77,-13.89 -43.28,-20.82 -61.66,-20.82 -17.66,0 -31.22,3.738 -40.73,11.199 -9.56,7.512 -15.44,17.86 -17.85,31.078 -2.38,13.282 -1.53,28.723 2.58,46.391 4.04,17.652 10.2,36.699 18.29,57.051 l 8.16,0 c 50.29,2.715 93.95,14.527 130.93,35.57 37.07,21.012 69.34,46.242 96.82,75.746 27.53,29.465 50.65,61.293 69.31,95.504 18.69,34.242 34.66,65.766 47.88,94.543 13.22,28.774 24.48,52.649 33.6,71.637 9.18,18.992 17.85,28.473 26.01,28.473 -15.53,4.437 -29.84,6.652 -42.92,6.652 -14.94,0 -28.33,-2.879 -40.09,-8.676 -22.12,-10.894 -41.61,-27.859 -58.61,-50.957 -34.62,-1.355 -68.65,-9.703 -101.89,-24.98 -33.29,-15.274 -64.74,-35.153 -94.23,-59.606 -29.58,-24.426 -56.44,-52.289 -80.56,-83.535 -6.49,-8.426 -11.9,-16.992 -17.81,-25.477 l -70.3,0 c 12.25,-3.41 18.35,-12.921 18.35,-28.554 0,-15.61 -4.21,-33.961 -12.69,-55.004 -8.57,-21.071 -20.27,-43.473 -35.22,-67.262 -14.88,-23.785 -31.05,-45.695 -48.4,-65.703 -17.3,-20.039 -34.8,-36.711 -52.43,-49.93 -17.66,-13.25 -33.69,-19.883 -47.93,-19.883 -9.51,0 -12.7,7.461 -9.68,22.434 3.05,14.906 11.06,33.957 23.92,57.027 64.6,116.856 122.16,216.719 172.75,299.586 50.57,82.864 93.27,152.149 127.89,207.875 34.63,55.7 60.77,99.7 78.46,131.97 17.67,32.24 25.96,56.69 24.93,73.36 -1,16.6 -11.73,27.3 -32.08,32.1 -20.37,4.74 -51.29,7.13 -92.71,7.13 8.15,0 10.37,-8.35 6.6,-24.95 -3.71,-16.7 -11.7,-39.1 -23.93,-67.27 -12.22,-28.22 -27.69,-60.99 -46.37,-98.33 -18.67,-37.373 -39.1,-76.435 -61.17,-117.193 -22.04,-40.727 -44.63,-82.008 -67.7,-123.789 -22.01,-39.758 -42.8,-77.575 -62.68,-113.614 l -67.73,0 c 12.2,-3.41 18.29,-12.921 18.29,-28.554 0,-15.61 -4.21,-33.961 -12.7,-55.004 -8.53,-21.071 -20.23,-43.473 -35.18,-67.262 -14.91,-23.785 -31.08,-45.695 -48.4,-65.703 -17.3,-20.039 -34.82,-36.711 -52.43,-49.93 -17.69,-13.25 -33.68,-19.883 -47.96,-19.883 -8.13,0 -11.17,6.122 -9.12,18.352 2.02,12.199 7.62,28.172 16.8,47.879 9.18,19.711 21.27,42.449 36.18,68.289 14.91,25.781 30.55,51.93 46.88,78.434 38.67,62.511 85.92,133.515 141.59,212.972 -6.1,8.817 -15.28,16.996 -27.51,24.43 -10.17,6.121 -23.76,11.75 -40.72,16.855 -17,5.102 -38.43,7.621 -64.24,7.621 10.87,0 16.36,-5.433 16.36,-16.3 0,-10.899 -3.77,-25.453 -11.26,-43.801 -1.99,18.348 -7.43,32.902 -16.27,43.801 -20.88,23.48 -43.5,35.211 -67.76,35.211 -1.02,0 -2.05,-0.028 -3.08,-0.059 -25.45,-1.023 -51.09,-11.035 -76.9,-30.055 -25.81,-19.015 -51.16,-44.66 -75.91,-76.957 -24.84,-32.215 -47.08,-67.066 -66.73,-104.414 -19.72,-37.367 -36.18,-75.238 -49.46,-113.613 -13.23,-38.398 -21.71,-73.023 -25.48,-103.934 -3.69,-30.918 -1.89,-56.23 5.62,-75.879 7.49,-19.742 22.44,-29.609 44.84,-29.609 25.12,0 50.29,8.508 75.41,25.5 25.12,16.969 49.57,38.731 73.33,65.211 -8.16,-27.191 -10.18,-49.07 -6.11,-65.73 4.14,-16.641 17.97,-24.981 41.82,-24.981 20.37,0 40.72,4.629 61.1,13.777 20.38,9.172 40.28,21.403 59.63,36.704 19.35,15.277 37.71,32.75 55.06,52.457 0.72,0.863 1.39,1.742 2.11,2.601 -2.36,-6.601 -4.82,-13.219 -6.77,-19.43 -5.43,-17.332 -7.76,-32.269 -7.14,-44.8 0.71,-12.59 4.48,-22.629 11.25,-30.078 6.82,-7.493 17.99,-11.231 33.6,-11.231 20.38,0 40.76,4.629 61.16,13.777 20.38,9.172 40.06,21.403 59.05,36.704 19.08,15.277 37.26,32.75 54.59,52.457 13.11,14.91 25.23,30.191 37.35,45.492 -3.83,-25.172 -3.55,-48.102 1.33,-68.422 5.82,-24.117 18.13,-43.469 37.2,-58.078 18.97,-14.621 46.5,-21.93 82.48,-21.93 22.43,0 44.86,4.629 67.29,13.777 22.4,9.172 44.47,21.403 66.26,36.704 21.71,15.277 42.59,32.75 62.61,52.457 14.46,14.191 28.1,28.664 41.3,43.195 -11.56,-26.645 -19.61,-50.715 -23.45,-71.723 -4.09,-22.429 -2.19,-40.422 5.65,-54.011 7.76,-13.579 24.62,-20.399 50.37,-20.399 -6.09,0 -9.12,3.91 -9.12,11.75 0,7.789 2.5,18.488 7.6,32.078 5.11,13.563 12.59,29.891 22.43,48.903 9.84,19.019 20.88,39.398 33.13,61.136 24.45,38.035 51.79,76.461 81.98,115.164 30.27,38.731 59.7,73.692 88.16,104.961 28.56,31.25 54.4,56.7 77.43,76.41 23.13,19.715 40.48,29.582 52.02,29.582 -67.98,-89.687 -121.32,-169.839 -159.99,-240.507 -16.34,-29.914 -30.42,-59.274 -42.29,-88.137 -11.92,-28.859 -18.68,-54.531 -20.4,-76.93 -1.7,-22.429 2.77,-40.422 13.28,-54.011 10.48,-13.579 29.69,-20.399 57.52,-20.399 17,0 34.52,4.629 52.54,13.777 17.97,9.172 35.62,21.403 52.99,36.704 17.29,15.277 34.26,32.75 50.9,52.457 2.6,3.101 4.87,6.32 7.45,9.453 -2.91,-9.711 -5.57,-18.93 -7.92,-27.782 -4.72,-17.691 -7.3,-32.789 -7.69,-45.351 -0.33,-12.59 2.41,-22.238 8.16,-29.059 5.79,-6.789 16.52,-10.199 32.12,-10.199 20.39,0 40.76,4.629 61.11,13.777 20.38,9.172 40.28,21.403 59.67,36.704 19.31,15.277 37.7,32.75 55.03,52.457 17.29,19.711 33.77,39.726 49.37,60.132 36.02,47.52 69.62,102.215 100.86,164.043 l -105.96,0 c 12.25,-3.41 18.35,-12.921 18.35,-28.554 0,-15.61 -4.38,-33.961 -13.25,-55.004 -8.82,-21.071 -20.55,-43.473 -35.16,-67.262 -14.6,-23.785 -30.74,-45.695 -48.42,-65.703 -17.67,-20.039 -35.27,-36.711 -52.96,-49.93 -17.69,-13.25 -33.61,-19.883 -47.88,-19.883 -9.49,0 -12.42,7.293 -8.67,21.903 3.74,14.609 11.41,33.801 22.94,57.558 6.8,12.914 19.33,35.512 37.71,67.782 18.3,32.269 40.2,69.617 65.74,112.089 25.45,42.45 53.31,87.473 83.53,135.016 30.19,47.551 60.63,93.402 91.19,137.57 22.39,-4.078 44.99,-7.32 67.78,-9.703 7.96,-0.836 15.86,-1.25 23.73,-1.25 14.64,0 29.14,1.442 43.53,4.297 22.07,4.438 43.14,13.754 63.15,28.031 20.02,14.278 38.52,36.321 55.57,66.259"
         style="fill:#ffffff;fill-opacity:1;fill-rule:nonzero;stroke:none"
         id="path3197" /><path
         d="m 2594.26,748.914 c 10.93,12.559 17.08,18.078 19.82,20.27 0.92,0.25 1.81,0.55 2.69,0.859 -12.91,-21.266 -25.62,-42.227 -38.03,-62.91 l -18.27,0 c 12,15.754 23.31,29.722 33.79,41.781 z m -84.45,-112.641 c -1.27,-10.953 -5.15,-24.203 -11.53,-39.398 -8.43,-19.879 -19.88,-41.477 -33.96,-64.039 -14.25,-22.793 -29.67,-43.945 -45.78,-62.856 -7.48,-8.871 -15,-17.019 -22.5,-24.421 3.6,7.589 7.62,15.64 12.03,24.121 15.77,30.328 35.48,64.234 58.63,100.832 14.28,22.621 28.7,44.609 43.11,65.761 z m -446.85,-70.585 c -6.86,-9.872 -14.4,-20.02 -22.63,-30.364 -18.33,-22.953 -38.53,-44.879 -60.13,-65.176 -20.66,-19.378 -41.62,-35.617 -62.24,-48.207 -16.52,-10.089 -31.19,-15.421 -42.42,-15.421 -13.31,0 -17.52,3 -17.97,3.332 -1.08,0.886 -3.19,2.519 -4.32,8.668 -1.44,8.16 -0.72,18.75 2.24,31.421 2.14,9.289 4.97,19.239 8.51,29.715 49.41,4.578 93.46,17.715 131.17,39.176 24.37,13.809 47.05,29.496 67.79,46.856 z M 1618.59,456.762 c 36.99,66.758 71.75,128.058 104.08,183.449 0.88,-0.641 1.83,-1.25 2.8,-1.832 -0.47,-7.816 -2.75,-20.098 -9.93,-37.895 -7.7,-19.023 -18.57,-39.703 -32.21,-61.441 -13.78,-22.012 -28.92,-42.555 -45.05,-61.156 -6.55,-7.598 -13.12,-14.637 -19.69,-21.125 z m -101.13,179.593 c -0.76,-7.843 -3.19,-19.542 -9.79,-35.871 -7.68,-18.996 -18.52,-39.679 -32.19,-61.441 -13.81,-21.984 -28.95,-42.555 -45.08,-61.188 -6.99,-8.125 -14.06,-15.636 -21.12,-22.535 6.9,13.469 15.1,28.414 24.47,44.637 14.5,25.086 30.11,51.176 46.33,77.535 11.59,18.719 24.07,38.348 37.38,58.863 z m 1125.9,-123.484 c 18.05,31.856 40.01,69.313 65.29,111.344 3.05,5.101 6.15,10.258 9.29,15.437 0.66,-0.437 1.33,-0.859 2.02,-1.273 -0.5,-7.707 -2.85,-19.82 -10.25,-37.375 -8.05,-19.207 -19,-40.109 -32.58,-62.266 -13.45,-21.902 -28.48,-42.277 -44.67,-60.574 -6.98,-7.984 -13.97,-15.332 -20.9,-22.043 5.79,10.649 15.64,28.414 31.8,56.75 z m 299.89,391.992 c -7.87,0 -15.77,0.414 -23.73,1.25 -22.79,2.383 -45.39,5.625 -67.78,9.703 -30.56,-44.168 -61,-90.019 -91.19,-137.57 -30.22,-47.543 -58.08,-92.566 -83.53,-135.016 -25.54,-42.472 -47.44,-79.82 -65.74,-112.089 -18.38,-32.27 -30.91,-54.868 -37.71,-67.782 -11.53,-23.757 -19.2,-42.949 -22.94,-57.558 -3.75,-14.61 -0.82,-21.903 8.67,-21.903 14.27,0 30.19,6.633 47.88,19.883 17.69,13.219 35.29,29.891 52.96,49.93 17.68,20.008 33.82,41.918 48.42,65.703 14.61,23.789 26.34,46.191 35.16,67.262 8.87,21.043 13.25,39.394 13.25,55.004 0,15.633 -6.1,25.144 -18.35,28.554 l 105.96,0 c -31.24,-61.828 -64.84,-116.523 -100.86,-164.043 -15.6,-20.406 -32.08,-40.421 -49.37,-60.132 -17.33,-19.707 -35.72,-37.18 -55.03,-52.457 -19.39,-15.301 -39.29,-27.532 -59.67,-36.704 -20.35,-9.148 -40.72,-13.777 -61.11,-13.777 -15.6,0 -26.33,3.41 -32.12,10.199 -5.75,6.821 -8.49,16.469 -8.16,29.059 0.39,12.562 2.97,27.66 7.69,45.351 2.35,8.852 5.01,18.071 7.92,27.782 -2.58,-3.133 -4.85,-6.352 -7.45,-9.453 -16.64,-19.707 -33.61,-37.18 -50.9,-52.457 -17.37,-15.301 -35.02,-27.532 -52.99,-36.704 -18.02,-9.148 -35.54,-13.777 -52.54,-13.777 -27.83,0 -47.04,6.82 -57.52,20.399 -10.51,13.589 -14.98,31.582 -13.28,54.011 1.72,22.399 8.48,48.071 20.4,76.93 11.87,28.863 25.95,58.223 42.29,88.137 38.67,70.668 92.01,150.82 159.99,240.507 -11.54,0 -28.89,-9.867 -52.02,-29.582 -23.03,-19.71 -48.87,-45.16 -77.43,-76.41 -28.46,-31.269 -57.89,-66.23 -88.16,-104.961 -30.19,-38.703 -57.53,-77.129 -81.98,-115.164 -12.25,-21.738 -23.29,-42.117 -33.13,-61.136 -9.84,-19.012 -17.32,-35.34 -22.43,-48.903 -5.1,-13.59 -7.6,-24.289 -7.6,-32.078 0,-7.84 3.03,-11.75 9.12,-11.75 -25.75,0 -42.61,6.82 -50.37,20.399 -7.84,13.589 -9.74,31.582 -5.65,54.011 3.84,21.008 11.89,45.078 23.45,71.723 -13.2,-14.531 -26.84,-29.004 -41.3,-43.195 -20.02,-19.707 -40.9,-37.18 -62.61,-52.457 -21.79,-15.301 -43.86,-27.532 -66.26,-36.704 -22.43,-9.148 -44.86,-13.777 -67.29,-13.777 -35.98,0 -63.51,7.309 -82.48,21.93 -19.07,14.609 -31.38,33.961 -37.2,58.078 -4.88,20.32 -5.16,43.25 -1.33,68.422 -12.12,-15.301 -24.24,-30.582 -37.35,-45.492 -17.33,-19.707 -35.51,-37.18 -54.59,-52.457 -18.99,-15.301 -38.67,-27.532 -59.05,-36.704 -20.4,-9.148 -40.78,-13.777 -61.16,-13.777 -15.61,0 -26.78,3.738 -33.6,11.231 -6.77,7.449 -10.54,17.488 -11.25,30.078 -0.62,12.531 1.71,27.468 7.14,44.8 1.95,6.211 4.41,12.829 6.77,19.43 -0.72,-0.859 -1.39,-1.738 -2.11,-2.601 -17.35,-19.707 -35.71,-37.18 -55.06,-52.457 -19.35,-15.301 -39.25,-27.532 -59.63,-36.704 -20.38,-9.148 -40.73,-13.777 -61.1,-13.777 -23.85,0 -37.68,8.34 -41.82,24.981 -4.07,16.66 -2.05,38.539 6.11,65.73 -23.76,-26.48 -48.21,-48.242 -73.33,-65.211 -25.12,-16.992 -50.29,-25.5 -75.41,-25.5 -22.4,0 -37.35,9.867 -44.84,29.609 -7.51,19.649 -9.31,44.961 -5.62,75.879 3.77,30.911 12.25,65.536 25.48,103.934 13.28,38.375 29.74,76.246 49.46,113.613 19.65,37.348 41.89,72.199 66.73,104.414 24.75,32.297 50.1,57.942 75.91,76.957 25.81,19.02 51.45,29.032 76.9,30.055 1.03,0.031 2.06,0.059 3.08,0.059 24.26,0 46.88,-11.731 67.76,-35.211 8.84,-10.899 14.28,-25.453 16.27,-43.801 7.49,18.348 11.26,32.902 11.26,43.801 0,10.867 -5.49,16.3 -16.36,16.3 25.81,0 47.24,-2.519 64.24,-7.621 16.96,-5.105 30.55,-10.734 40.72,-16.855 12.23,-7.434 21.41,-15.613 27.51,-24.43 -55.67,-79.457 -102.92,-150.461 -141.59,-212.972 -16.33,-26.504 -31.97,-52.653 -46.88,-78.434 -14.91,-25.84 -27,-48.578 -36.18,-68.289 -9.18,-19.707 -14.78,-35.68 -16.8,-47.879 -2.05,-12.23 0.99,-18.352 9.12,-18.352 14.28,0 30.27,6.633 47.96,19.883 17.61,13.219 35.13,29.891 52.43,49.93 17.32,20.008 33.49,41.918 48.4,65.703 14.95,23.789 26.65,46.191 35.18,67.262 8.49,21.043 12.7,39.394 12.7,55.004 0,15.633 -6.09,25.144 -18.29,28.554 l 67.73,0 c 19.88,36.039 40.67,73.856 62.68,113.614 23.07,41.781 45.66,83.062 67.7,123.789 22.07,40.758 42.5,79.82 61.17,117.193 18.68,37.34 34.15,70.11 46.37,98.33 12.23,28.17 20.22,50.57 23.93,67.27 3.77,16.6 1.55,24.95 -6.6,24.95 41.42,0 72.34,-2.39 92.71,-7.13 20.35,-4.8 31.08,-15.5 32.08,-32.1 1.03,-16.67 -7.26,-41.12 -24.93,-73.36 -17.69,-32.27 -43.83,-76.27 -78.46,-131.97 -34.62,-55.726 -77.32,-125.011 -127.89,-207.875 -50.59,-82.867 -108.15,-182.73 -172.75,-299.586 -12.86,-23.07 -20.87,-42.121 -23.92,-57.027 -3.02,-14.973 0.17,-22.434 9.68,-22.434 14.24,0 30.27,6.633 47.93,19.883 17.63,13.219 35.13,29.891 52.43,49.93 17.35,20.008 33.52,41.918 48.4,65.703 14.95,23.789 26.65,46.191 35.22,67.262 8.48,21.043 12.69,39.394 12.69,55.004 0,15.633 -6.1,25.144 -18.35,28.554 l 70.3,0 c 5.91,8.485 11.32,17.051 17.81,25.477 24.12,31.246 50.98,59.109 80.56,83.535 29.49,24.453 60.94,44.332 94.23,59.606 33.24,15.277 67.27,23.625 101.89,24.98 17,23.098 36.49,40.063 58.61,50.957 11.76,5.797 25.15,8.676 40.09,8.676 13.08,0 27.39,-2.215 42.92,-6.652 -8.16,0 -16.83,-9.481 -26.01,-28.473 -9.12,-18.988 -20.38,-42.863 -33.6,-71.637 -13.22,-28.777 -29.19,-60.301 -47.88,-94.543 -18.66,-34.211 -41.78,-66.039 -69.31,-95.504 -27.48,-29.504 -59.75,-54.734 -96.82,-75.746 -36.98,-21.043 -80.64,-32.855 -130.93,-35.57 l -8.16,0 c -8.09,-20.352 -14.25,-39.399 -18.29,-57.051 -4.11,-17.668 -4.96,-33.109 -2.58,-46.391 2.41,-13.218 8.29,-23.566 17.85,-31.078 9.51,-7.461 23.07,-11.199 40.73,-11.199 18.38,0 38.89,6.93 61.66,20.82 22.79,13.918 45.52,31.469 68.28,52.821 22.71,21.34 43.97,44.324 63.71,69.086 19.66,24.672 35.65,48.238 47.85,70.527 12.26,22.344 19.52,41.641 21.93,57.914 2.39,16.246 -2.51,26.035 -14.77,29.445 l 65.18,0 c 1.19,2.192 2.38,4.411 3.6,6.598 17.33,30.91 31.94,59.141 43.81,84.59 11.86,25.508 20.07,47.375 24.45,65.73 4.46,18.325 2.22,30.914 -6.6,37.707 25.78,0 47.22,-2.578 64.21,-7.652 16.96,-5.102 30.55,-10.703 40.73,-16.832 12.23,-7.457 21.4,-15.605 27.5,-24.426 -12.95,-18.375 -26.37,-38.062 -40.25,-59.133 -13.95,-21.015 -28.37,-42.75 -43.26,-65.207 18.31,23.786 37.15,46.356 56.54,67.786 19.34,21.406 38.31,39.898 57.05,55.531 18.69,15.609 36.65,28.004 54,37.179 16.14,8.567 30.95,12.805 44.47,12.805 0.97,0 1.95,0 2.91,-0.051 12.23,-0.664 23.24,-3.218 33.08,-7.652 9.89,-4.41 18.41,-9.508 25.51,-15.277 7.15,-5.793 12.89,-12.086 17.35,-18.825 4.38,-6.847 7.6,-12.972 9.65,-18.378 -6.8,0 -19.37,-10.508 -37.7,-31.579 -18.33,-21.043 -38.93,-47.546 -61.64,-79.457 -22.76,-31.968 -45.87,-66.429 -69.27,-103.441 -23.44,-37.039 -43.54,-71.5 -60.14,-103.469 -16.69,-31.91 -27.86,-58.383 -33.63,-79.429 -5.76,-21.071 -2.52,-31.602 9.68,-31.602 12.25,0 26.8,6.629 43.79,19.879 16.98,13.25 34.19,30.019 51.44,50.43 17.35,20.371 33.68,42.804 48.96,67.226 15.27,24.485 27.48,47.578 36.7,69.313 9.13,21.738 14.04,40.757 14.75,57.086 0.69,16.3 -5.1,26.472 -17.32,30.55 l 70,0 c 1.86,3.133 3.49,5.993 5.38,9.149 24.45,40.754 49.9,82.73 76.46,125.871 26.48,43.133 50.27,83.031 71.34,119.711 -27.23,-2.051 -50.29,-10.176 -69.32,-24.422 8.79,11.531 20.38,21.008 34.63,28.492 14.25,7.492 30.23,13.922 47.91,19.36 17.63,31.242 31.27,57.075 40.73,77.465 9.57,20.37 12.25,32.27 8.15,35.65 12.23,8.15 27.33,16.3 45.35,24.45 17.97,8.15 36.71,15.64 56.09,22.4 19.32,6.82 38.68,12.39 58.05,16.83 19.42,4.4 36.85,6.63 52.46,6.63 -17.69,-13.62 -38.32,-34.83 -62.16,-63.66 -23.78,-28.89 -49.23,-62.36 -76.4,-100.39 24.47,2.023 48.23,3.742 71.3,5.078 23.12,1.379 44.5,3.074 64.21,5.125 19.74,2.019 36.7,4.937 50.95,8.652 14.26,3.711 24.46,9.313 30.62,16.825 -17.05,-29.938 -35.55,-51.981 -55.57,-66.259 -20.01,-14.277 -41.08,-23.593 -63.15,-28.031 -14.39,-2.855 -28.89,-4.297 -43.53,-4.297 z m 183.15,129.007 c -6.38,4.38 -13.65,6.48 -20.88,6.48 -10.73,0 -21.32,-4.66 -28.58,-13.5 0,0 -2.77,-2.28 -11.36,-4.52 -12.56,-3.27 -27.85,-5.85 -45.42,-7.65 -16.47,-1.72 -34.68,-3.22 -54.34,-4.49 9.45,12.25 18.63,23.76 27.5,34.52 22.07,26.67 40.98,46.15 56.17,57.85 12.53,9.65 17.52,26.17 12.42,41.15 -5.07,14.94 -19.13,25 -34.93,25 -18.46,0 -38.29,-2.46 -60.63,-7.53 -21.02,-4.8 -41.9,-10.87 -62.16,-18.03 -20.23,-7.04 -40.15,-15 -59.05,-23.59 -19.69,-8.9 -36.74,-18.11 -50.6,-27.33 -9.71,-6.49 -15.78,-17.19 -16.36,-28.87 -0.16,-3.07 0.06,-6.15 0.67,-9.15 -0.97,-2.66 -2.61,-6.76 -5.38,-12.67 -7.74,-16.66 -18.38,-37.2 -32.52,-62.595 -14.34,-5.074 -27.73,-10.84 -39.87,-17.218 -19.1,-10.039 -34.85,-23.094 -46.82,-38.813 -11.14,-14.637 -9.82,-35.293 3.15,-48.355 4.88,-4.93 10.84,-8.204 17.2,-9.813 -7.88,-13.058 -16.06,-26.476 -24.45,-40.199 -3.17,-5.098 -6.3,-10.172 -9.41,-15.246 -0.36,2.883 -1.05,5.738 -2.13,8.512 -2.97,7.871 -7.23,16.109 -13.03,25.171 -6.93,10.454 -15.31,19.598 -25.23,27.61 -9.57,7.765 -20.91,14.617 -33.71,20.324 -13.84,6.238 -29.39,9.871 -46.11,10.785 -1.8,0.082 -3.35,0.137 -4.91,0.137 -19.57,0 -40.34,-5.766 -61.76,-17.129 -15.95,-8.434 -32.49,-19.356 -49.35,-32.551 -7.26,7.098 -15.86,13.695 -25.73,19.738 -13.09,7.875 -29.17,14.586 -49.33,20.657 -13.33,3.965 -28.63,6.683 -45.74,8.07 1.66,3.406 2.8,7.125 3.36,11.059 2.55,18.214 -8.71,35.543 -26.4,40.617 -18.74,5.351 -36.59,8.066 -53.06,8.066 -20.57,0 -39.53,-4.187 -56.36,-12.449 -22.63,-11.141 -43.12,-27.391 -61.1,-48.402 -33.47,-3.328 -66.52,-12.422 -98.54,-27.118 -36.09,-16.578 -70.53,-38.339 -102.38,-64.738 -31.5,-26 -60.5,-56.086 -86.23,-89.41 -2.82,-3.684 -5.49,-7.402 -8.09,-11.117 l -32.72,0 c 7.55,12.59 14.89,24.785 22.1,36.574 46.44,76.125 89.41,145.965 127.75,207.625 34.69,55.808 61.44,100.798 79.46,133.708 21.57,39.37 30.91,69.03 29.42,93.38 -0.95,15.66 -8.73,53.56 -60.44,65.76 -23.52,5.46 -56.56,8.09 -101.2,8.09 -20.37,0 -36.9,-16.52 -36.9,-36.89 0,-7.8 2.41,-15 6.52,-20.94 -3.61,-14.08 -10.59,-33.05 -20.79,-56.58 -11.82,-27.29 -27.15,-59.75 -45.53,-96.51 -17.88,-35.79 -38.26,-74.858 -60.6,-116.135 -22.02,-40.645 -44.56,-81.84 -67.6,-123.539 -15.49,-28.004 -30.41,-55.09 -44.82,-81.262 l -7.32,-13.281 -17.88,0 c 17.63,26.09 36.34,53.316 56.11,81.515 8.87,12.641 8.92,29.465 0.14,42.168 -9.07,13.137 -22.1,24.891 -38.71,34.985 -13.08,7.875 -29.17,14.609 -49.26,20.652 -20.6,6.184 -45.08,9.176 -74.86,9.176 -4.55,0 -8.92,-0.828 -12.95,-2.324 -20.43,14.113 -42.53,21.234 -65.98,21.234 -1.53,0 -3.05,-0.027 -4.57,-0.082 -32.85,-1.332 -65.6,-13.832 -97.32,-37.207 -28.58,-21.07 -56.61,-49.402 -83.28,-84.223 -25.87,-33.519 -49.46,-70.449 -70.12,-109.679 -20.43,-38.731 -37.81,-78.68 -51.67,-118.743 -14,-40.671 -23.18,-78.179 -27.25,-111.535 -4.46,-37.539 -1.92,-68.09 7.82,-93.519 12.83,-33.871 41.75,-53.332 79.29,-53.332 32.52,0 64.87,10.703 96.09,31.82 4.82,3.27 9.62,6.711 14.42,10.293 7.67,-17.773 26.77,-42.113 73.94,-42.113 25.42,0 51.07,5.711 76.21,17.019 19.13,8.602 37.93,19.602 56.03,32.774 3.49,-9.981 8.73,-18.832 15.66,-26.453 14.14,-15.528 34.6,-23.34 60.94,-23.34 25.42,0 51.1,5.711 76.27,16.992 23.21,10.48 45.77,24.48 67.09,41.668 13.2,10.531 26.12,22.211 38.59,34.769 9.04,-25.808 24.57,-47.269 46.28,-63.91 25.42,-19.566 60.74,-29.519 104.93,-29.519 27.03,0 54.37,5.543 81.23,16.492 24.88,10.199 49.6,23.871 73.53,40.699 7.21,5.078 14.36,10.399 21.43,15.922 1.77,-12.594 5.6,-24.043 11.51,-34.273 10.09,-17.629 32.63,-38.84 82.33,-38.84 20.38,0 36.91,16.519 36.91,36.902 0,8.098 -2.61,15.551 -7.02,21.649 0.75,2.492 1.77,5.55 3.13,9.199 4.58,12.152 11.54,27.281 20.66,44.922 9.56,18.461 20.32,38.308 32,59.047 15.57,24.175 32.46,48.71 50.47,73.25 -6.81,-14.364 -13.16,-28.641 -18.93,-42.696 -13.28,-32.16 -21.04,-61.832 -23.07,-88.133 -2.41,-31.718 4.63,-58.418 20.88,-79.398 17.77,-23.051 46.96,-34.742 86.72,-34.742 22.72,0 46.03,5.992 69.26,17.769 15.55,7.953 30.92,17.883 45.88,29.641 2.8,-9.047 7.18,-17.078 13.06,-24.07 13.26,-15.547 33.52,-23.34 60.35,-23.34 25.48,0 51.1,5.711 76.25,17.019 23.12,10.422 45.8,24.344 67.4,41.391 21.15,16.75 41.31,35.93 59.88,57.062 18.02,20.539 35.16,41.418 50.96,62.075 37.2,49.093 72.33,106.179 104.49,169.832 5.79,11.425 5.21,25.062 -1.49,35.961 -6.72,10.925 -18.61,17.574 -31.45,17.574 l -85.2,0 c 10.48,16.777 21.25,33.906 32.33,51.316 25.04,39.457 50.94,78.742 77.11,117.055 15.6,-2.438 31.3,-4.465 46.87,-6.102 9.15,-0.968 18.44,-1.437 27.56,-1.437 16.97,0 34.02,1.664 50.73,4.988 27.26,5.488 53.27,16.996 77.39,34.184 24.65,17.605 46.3,43.113 66.2,78.043 9.48,16.66 4.63,37.82 -11.17,48.69"
         style="fill:#231f20;fill-opacity:1;fill-rule:nonzero;stroke:none"
         id="path3199" /><path
         d="m 1188.65,431.34 c 3.96,15.769 10.03,34.07 18.18,54.64 12.75,32.243 30,67.536 51.27,104.856 21.07,36.949 43.33,71.137 66.17,101.582 6.96,9.199 13.86,17.797 20.74,25.695 0.56,-0.414 1.11,-0.804 1.72,-1.191 -0.03,-0.442 -0.06,-0.918 -0.08,-1.414 -1.17,-16.051 -6.24,-36.235 -15.09,-59.856 -9.5,-25.371 -22.48,-53.066 -38.56,-82.257 -16.22,-29.551 -33.55,-57.004 -51.46,-81.676 -17.58,-24.149 -35.09,-44.199 -52.03,-59.578 -0.31,-0.282 -0.58,-0.551 -0.86,-0.801 z m 194.81,281.672 c 1.33,19.687 -4.1,31.246 -16.33,34.66 l 64.21,0 c 3.39,13.582 4.58,25.312 3.58,35.148 -1.05,9.844 -4.63,16.473 -10.73,19.852 -5.16,2.582 -10.65,3.879 -16.47,3.879 -12.61,0 -26.84,-6.039 -42.64,-18.129 -23.06,-17.66 -46.52,-42.281 -70.3,-73.856 -23.74,-31.609 -46.69,-66.757 -68.76,-105.464 -22.07,-38.754 -39.96,-75.27 -53.51,-109.536 -13.58,-34.355 -21.9,-63.015 -24.95,-86.117 -3.08,-23.117 2.52,-34.648 16.82,-34.648 14.28,0 30.89,8.668 49.94,26 19.02,17.269 38.03,39.07 57.06,65.211 19.01,26.144 36.98,54.672 53.95,85.582 16.99,30.886 30.6,59.941 40.8,87.109 10.18,27.168 15.92,50.598 17.33,70.309"
         style="fill:#231f20;fill-opacity:1;fill-rule:nonzero;stroke:none"
         id="path3201" /><path
         d="m 1943.35,572.426 c 22.07,20.375 41.26,45.16 57.53,74.379 16.33,29.195 31.1,60.273 44.38,93.211 13.21,32.968 27.62,63.347 43.31,91.214 -18.38,-10.207 -38.56,-25.812 -60.66,-46.855 -22.12,-21.098 -44.19,-45.219 -66.26,-72.359 -22.07,-27.172 -43.13,-56.032 -63.15,-86.61 -20.07,-30.554 -36.88,-60.133 -50.46,-88.664 2.69,0.664 7.15,1.028 13.31,1.028 32.57,2.714 59.93,14.246 82,34.656"
         style="fill:#231f20;fill-opacity:1;fill-rule:nonzero;stroke:none"
         id="path3203" /></g></g></svg>